<svg width="80" height="84" viewBox="0 0 80 84" fill="none" xmlns="http://www.w3.org/2000/svg">
<g clip-path="url(#clip0)">
<path fill-rule="evenodd" clip-rule="evenodd" d="M49.9083 36.743L52.369 40.8766C52.4867 41.0761 52.5201 41.3137 52.4618 41.5374C52.4036 41.7612 52.2584 41.9531 52.0581 42.0711L47.8875 44.5092C47.6865 44.626 47.447 44.6591 47.2215 44.6013C46.9959 44.5435 46.8026 44.3995 46.6836 44.2008L44.2262 40.0672C44.1086 39.8671 44.0757 39.6288 44.1348 39.4047C44.1939 39.1806 44.3402 38.9889 44.5415 38.8716L48.7088 36.4346C48.9095 36.3192 49.1479 36.2869 49.3724 36.3446C49.5969 36.4023 49.7894 36.5455 49.9083 36.743Z" fill="#FF7472"/>
<path fill-rule="evenodd" clip-rule="evenodd" d="M42.1922 0.254891L45.6098 3.64578C45.7741 3.80973 45.8663 4.03152 45.8663 4.2627C45.8663 4.49388 45.7741 4.71567 45.6098 4.87963L42.1922 8.27052C42.027 8.4335 41.8034 8.52498 41.5704 8.52498C41.3374 8.52498 41.1139 8.4335 40.9486 8.27052L37.531 4.87963C37.3667 4.71567 37.2745 4.49388 37.2745 4.2627C37.2745 4.03152 37.3667 3.80973 37.531 3.64578V3.64578L40.9486 0.254891C41.1139 0.0919084 41.3374 0.000427246 41.5704 0.000427246C41.8034 0.000427246 42.027 0.0919084 42.1922 0.254891V0.254891Z" fill="#FF7472"/>
<path fill-rule="evenodd" clip-rule="evenodd" d="M2.22577 24.946L5.60261 26.2586C5.76539 26.3223 5.89611 26.4474 5.96615 26.6065C6.0362 26.7656 6.03986 26.9457 5.97634 27.1075L4.65339 30.4579C4.58899 30.6189 4.46303 30.7482 4.30297 30.8174C4.14292 30.8867 3.96175 30.8903 3.79898 30.8276L0.422151 29.515C0.259641 29.4513 0.129126 29.3264 0.0591041 29.1676C-0.0109183 29.0088 -0.0147603 28.8289 0.048417 28.6673V28.6673L1.37137 25.3169C1.43576 25.1558 1.56173 25.0266 1.72179 24.9573C1.88184 24.8881 2.06301 24.8844 2.22577 24.9471V24.946Z" fill="#FF7472"/>
<path fill-rule="evenodd" clip-rule="evenodd" d="M79.9966 52.1169L79.6185 56.9013C79.5996 57.1316 79.4897 57.3452 79.3127 57.4954C79.1357 57.6456 78.9059 57.7203 78.6737 57.7031L73.8515 57.3279C73.6192 57.3092 73.4037 57.1999 73.2523 57.0241C73.1009 56.8482 73.0258 56.62 73.0434 56.3894L73.426 51.6049C73.4451 51.3748 73.5552 51.1615 73.7321 51.0115C73.9091 50.8615 74.1387 50.787 74.3708 50.8043L79.1929 51.1794C79.4251 51.1982 79.6404 51.3072 79.7917 51.4829C79.9431 51.6585 80.0184 51.8864 80.001 52.1169H79.9966Z" fill="#FF7472"/>
<path fill-rule="evenodd" clip-rule="evenodd" d="M76.6905 1.19085L79.2559 3.73619C79.3791 3.85915 79.4482 4.02549 79.4482 4.19888C79.4482 4.37226 79.3791 4.5386 79.2559 4.66156V4.66156L76.6905 7.2069C76.5665 7.32914 76.3989 7.39775 76.2241 7.39775C76.0494 7.39775 75.8817 7.32914 75.7578 7.2069V7.2069L73.1924 4.66156C73.0692 4.5386 73 4.37226 73 4.19888C73 4.02549 73.0692 3.85915 73.1924 3.73619V3.73619L75.7578 1.19085C75.8817 1.06861 76.0494 1 76.2241 1C76.3989 1 76.5665 1.06861 76.6905 1.19085Z" fill="#FF7472"/>
<path fill-rule="evenodd" clip-rule="evenodd" d="M26.846 6.55316C28.4015 6.62644 29.5922 8.29345 29.5062 10.2777C29.4202 12.2619 27.6056 24.9164 26.05 24.8432C24.4944 24.7699 23.7866 11.995 23.8737 10.0119C23.9608 8.02874 25.2904 6.47987 26.846 6.55316Z" fill="#21D4FD"/>
<path fill-rule="evenodd" clip-rule="evenodd" d="M75.7003 37.1674C76.4412 38.6168 75.4798 40.4774 73.5527 41.324C71.6256 42.1706 58.6795 46.4311 57.9397 44.9829C57.2 43.5346 68.9478 36.9279 70.8738 36.0802C72.7997 35.2324 74.9606 35.7192 75.7003 37.1674Z" fill="#21D4FD"/>
<path fill-rule="evenodd" clip-rule="evenodd" d="M61.3928 4.78009C62.7808 5.96909 62.3938 9.0712 60.5273 11.7052C58.6609 14.3391 45.5714 30.284 44.1834 29.0972C42.7954 27.9103 53.6337 10.0392 55.5001 7.40201C57.3666 4.76477 60.0048 3.59109 61.3928 4.78009Z" fill="#21D4FD"/>
<path fill-rule="evenodd" clip-rule="evenodd" d="M35.8486 32.8621C32.1921 36.3084 30.6946 35.5514 31.3561 30.5913C26.9235 28.2067 27.1862 26.5598 32.1444 25.6504C33.0594 20.7289 34.7193 20.4682 37.1242 24.8683C42.122 24.212 42.8849 25.6978 39.4129 29.3257C41.587 33.8403 40.3989 35.0191 35.8486 32.8621Z" fill="#FFCC00"/>
<path fill-rule="evenodd" clip-rule="evenodd" d="M63.7563 29.5446C57.473 31.0183 56.3084 29.2233 60.2626 24.1596C56.9074 18.6904 58.2671 17.0373 64.3417 19.2001C68.5509 14.3435 70.5563 15.1165 70.3578 21.5191C76.3111 23.9904 76.1899 26.1216 69.994 27.9126C69.467 34.2962 67.3878 34.8402 63.7563 29.5446Z" fill="#FFCC00"/>
<path fill-rule="evenodd" clip-rule="evenodd" d="M10.9232 76.7883C10.7832 78.1403 10.1515 78.5166 9.37975 78.7572C8.60803 78.9979 15.4433 81.4481 16.1048 81.1637C16.7662 80.8793 17.2403 80.1136 17.3175 79.1948C17.3905 78.2093 17.3535 77.2188 17.2072 76.2414C17.0551 75.1366 16.8467 73.987 16.4355 73.0693C15.6417 71.2973 9.2695 67.7707 6.40311 62.2403C5.92023 61.3072 4.16181 59.3635 4.19819 61.2558C4.4297 62.1408 6.44721 65.6531 7.8363 67.9282C9.20335 70.5425 11.2363 73.7781 10.9232 76.7883ZM27.1293 51.5207L19.3019 44.3014C19.3019 44.3014 13.3707 36.7101 13.0179 37.629C12.6651 38.5478 13.2825 39.3791 14.3408 40.8011C15.3992 42.2231 17.6923 45.8984 18.9711 47.6923C20.25 49.4862 23.1164 54.3865 24.3732 56.8805C25.63 59.3744 27.0191 64.3623 26.9089 65.9593C26.7986 67.5563 26.3576 67.0313 25.1449 67.6001C23.9322 68.1689 27.0852 68.3439 29.0035 68.0376C30.9218 67.7314 37.8717 68.2564 38.3744 66.8344C38.8154 65.5874 38.7812 63.8712 37.8232 61.4746C37.0956 59.6534 35.5742 56.0711 34.0748 55.3491C32.9481 54.8022 27.1293 51.5207 27.1293 51.5207ZM55.1318 54.9116C53.5807 54.5583 57.6101 54.2969 59.1007 52.2864C59.9826 51.0952 60.2031 50.2956 60.3134 49.333C60.4082 48.5039 60.8205 48.5892 61.0851 49.333C61.3497 50.0768 61.6584 51.2582 61.6363 52.2864C61.6143 53.3146 61.1512 53.9053 60.5339 54.4741C59.9165 55.0428 55.4416 54.9827 55.1318 54.9116Z" fill="#A65CAB"/>
<path fill-rule="evenodd" clip-rule="evenodd" d="M7.17441 76.679C6.07195 75.8674 4.56599 74.4366 3.75678 73.3975C3.10964 72.5651 2.29602 71.3739 1.99284 70.6629C1.77786 70.1586 1.19797 70.4813 0.669893 71.8661C0.128585 73.2881 -0.187821 77.1625 1.11088 78.6479C2.3754 80.095 4.56158 82.4019 7.83588 83.5702C10.2889 84.4452 11.9205 83.7889 13.3482 83.3514C14.3823 83.0386 17.6235 81.6013 17.2068 79.523C16.8694 79.9528 16.9135 81.9141 11.8047 79.6323C10.1533 78.8667 9.39366 78.3088 7.17441 76.679ZM6.18219 56.8806C5.3807 57.853 4.53732 59.5211 4.30801 60.1621C4.05996 60.8567 4.41826 61.1115 5.18998 62.4591C6.21857 64.2661 8.57122 68.1471 12.4662 70.8817C14.1453 72.0608 18.4482 74.674 24.042 74.7101C26.0617 74.7232 27.0738 74.4552 29.1134 73.7256C31.1529 72.996 33.3214 71.83 34.4052 71.2098C35.4889 70.5896 40.0101 67.8189 38.4909 64.428C38.6673 66.8181 35.5738 68.5091 26.9084 67.272C21.0279 66.4615 16.6004 64.5013 13.4584 62.0216C10.3164 59.5419 9.3242 58.1932 8.71785 56.2243C8.25812 54.5835 6.79185 56.1422 6.18219 56.8806ZM23.1601 33.1443C21.4788 31.7595 19.1548 29.3892 18.64 28.8784C18.1251 28.3675 17.8616 27.9858 17.0965 28.9877C16.5993 29.6386 13.2038 35.682 13.0174 37.5197C12.9149 38.5315 13.4683 38.981 14.2301 39.9261C14.885 40.7377 20.7622 46.5854 22.7191 48.5674C24.6021 50.4751 31.5851 55.3492 35.3974 57.3181C37.6916 58.5038 42.2326 60.6543 43.9966 61.3653C45.7605 62.0763 47.8375 62.6965 48.7371 62.8967C49.6367 63.0968 50.4834 63.2062 52.1548 62.3497C53.6625 61.5591 55.1008 60.6444 56.4544 59.6151C57.3187 58.9403 60.4607 56.1696 61.1949 54.3647C61.7462 53.1068 61.6734 52.5599 61.6359 51.9583C61.5984 51.3567 61.7837 53.6537 60.5335 54.0366C59.2833 54.4194 57.3066 53.9655 56.3441 53.7084C54.7092 53.2709 50.4217 51.6947 47.8552 50.3175C43.151 47.7941 35.8836 43.4351 33.4129 41.4575C29.379 38.2285 25.7486 35.2751 23.1601 33.1443Z" fill="#21D4FD"/>
<path d="M49.5195 79.8975L51.2861 73.4902H53.9404L50.7324 83H48.3066L45.0986 73.4902H47.7529L49.5195 79.8975ZM61.8506 70.0713V72.1631H61.6045C60.4561 72.1807 59.5303 72.4795 58.8271 73.0596C58.1299 73.6396 57.7109 74.4453 57.5703 75.4766C58.25 74.7852 59.1084 74.4395 60.1455 74.4395C61.2588 74.4395 62.1436 74.8379 62.7998 75.6348C63.4561 76.4316 63.7842 77.4805 63.7842 78.7812C63.7842 79.6133 63.6025 80.3662 63.2393 81.04C62.8818 81.7139 62.3721 82.2383 61.71 82.6133C61.0537 82.9883 60.3096 83.1758 59.4775 83.1758C58.1299 83.1758 57.04 82.707 56.208 81.7695C55.3818 80.832 54.9688 79.5811 54.9688 78.0166V77.1025C54.9688 75.7139 55.2295 74.4893 55.751 73.4287C56.2783 72.3623 57.0312 71.5391 58.0098 70.959C58.9941 70.373 60.1338 70.0771 61.4287 70.0713H61.8506ZM59.3721 76.4785C58.9619 76.4785 58.5898 76.5869 58.2559 76.8037C57.9219 77.0146 57.6758 77.2959 57.5176 77.6475V78.4209C57.5176 79.2705 57.6846 79.9355 58.0186 80.416C58.3525 80.8906 58.8213 81.1279 59.4248 81.1279C59.9697 81.1279 60.4092 80.9141 60.7432 80.4863C61.083 80.0527 61.2529 79.4932 61.2529 78.8076C61.2529 78.1104 61.083 77.5479 60.7432 77.1201C60.4033 76.6924 59.9463 76.4785 59.3721 76.4785ZM65.5332 81.752C65.5332 81.3477 65.668 81.0195 65.9375 80.7676C66.2129 80.5156 66.5557 80.3896 66.9658 80.3896C67.3818 80.3896 67.7246 80.5156 67.9941 80.7676C68.2695 81.0195 68.4072 81.3477 68.4072 81.752C68.4072 82.1504 68.2725 82.4756 68.0029 82.7275C67.7334 82.9736 67.3877 83.0967 66.9658 83.0967C66.5498 83.0967 66.207 82.9736 65.9375 82.7275C65.668 82.4756 65.5332 82.1504 65.5332 81.752ZM79.1475 77.709C79.1475 79.4785 78.7812 80.832 78.0488 81.7695C77.3164 82.707 76.2441 83.1758 74.832 83.1758C73.4375 83.1758 72.3711 82.7158 71.6328 81.7959C70.8945 80.876 70.5166 79.5576 70.499 77.8408V75.4854C70.499 73.6982 70.8682 72.3418 71.6064 71.416C72.3506 70.4902 73.4199 70.0273 74.8145 70.0273C76.209 70.0273 77.2754 70.4873 78.0137 71.4072C78.752 72.3213 79.1299 73.6367 79.1475 75.3535V77.709ZM76.6074 75.125C76.6074 74.0645 76.4609 73.2939 76.168 72.8135C75.8809 72.3271 75.4297 72.084 74.8145 72.084C74.2168 72.084 73.7744 72.3154 73.4873 72.7783C73.2061 73.2354 73.0566 73.9531 73.0391 74.9316V78.043C73.0391 79.0859 73.1797 79.8623 73.4609 80.3721C73.748 80.876 74.2051 81.1279 74.832 81.1279C75.4531 81.1279 75.9014 80.8848 76.1768 80.3984C76.4521 79.9121 76.5957 79.168 76.6074 78.166V75.125Z" fill="#222222"/>
</g>
<defs>
<clipPath id="clip0">
<rect width="80" height="84" fill="white"/>
</clipPath>
</defs>
</svg>
