<svg width="89" height="67" viewBox="0 0 89 67" fill="none" xmlns="http://www.w3.org/2000/svg"><path d="M88.747 34.334v4.328a.58.58 0 010 .158v-4.328a.58.58 0 000-.158z" fill="#946DB6"/><path d="M88.727 34.492v4.328a.591.591 0 01-.042.158V34.65a.592.592 0 00.041-.158z" fill="#8E72BA"/><path d="M88.685 34.65v4.328a1.635 1.635 0 01-.076.158v-4.328a.999.999 0 00.076-.158z" fill="#8877BD"/><path d="M88.61 34.808v4.328c0 .055-.07.11-.111.165v-4.328l.11-.165z" fill="#837CC1"/><path d="M88.499 34.973v4.328a2.114 2.114 0 01-.172.186v-4.328c.062-.057.12-.12.172-.186z" fill="#7D81C4"/><path d="M88.327 35.159v4.328a2.33 2.33 0 01-.352.26V35.42a2.07 2.07 0 00.359-.261" fill="#7786C8"/><path d="M87.968 35.42v4.328h-.034V35.46" fill="#718CCB"/><path d="M48.486 35.461v4.328a1.378 1.378 0 01-.827-1.147v-4.349a1.371 1.371 0 00.827 1.168z" fill="#AB58A8"/><path d="M87.94 35.44l-.006 4.328-17.7 10.243.007-4.321 17.7-10.25z" fill="#6399D4"/><path d="M66.296 45.69l-.006 4.32-17.81-10.242.006-4.328 17.81 10.25z" fill="#A65CAB"/><path d="M70.24 45.69v4.32a3.012 3.012 0 01-.606.269v-4.321c.21-.073.412-.162.607-.268z" fill="#718CCB"/><path d="M69.634 45.958v4.32a3.33 3.33 0 01-.531.131v-4.32c.18 0 .358-.083.53-.131z" fill="#7786C8"/><path d="M69.075 46.088v4.321l-.351.055v-4.328l.358-.048" fill="#7D81C4"/><path d="M68.744 46.136v4.328h-.31v-4.328h.303" fill="#837CC1"/><path d="M68.44 46.157v4.328h-.289v-4.328h.29z" fill="#8877BD"/><path d="M68.151 46.157v4.328h-.275v-4.328h.275z" fill="#8E72BA"/><path d="M67.876 46.143v4.328h-.27V46.11h.27" fill="#946DB6"/><path d="M67.607 46.109v4.328l-.276-.048V46.06l.276.048z" fill="#9967B2"/><path d="M67.33 46.06v4.329l-.296-.07v-4.327l.297.069z" fill="#9F62AF"/><path d="M67.007 45.992v4.328a3.279 3.279 0 01-.338-.117v-4.328c.11.047.223.086.338.117z" fill="#A55DAB"/><path d="M66.697 45.875v4.328a2.68 2.68 0 01-.4-.192v-4.328c.127.075.261.14.4.192z" fill="#AB58A8"/><path d="M87.92 33.166c1.097.626 1.104 1.65 0 2.274L70.243 45.69a4.356 4.356 0 01-3.945 0L48.487 35.46c-1.096-.625-1.103-1.649 0-2.274l17.68-10.27a4.378 4.378 0 013.944 0l17.81 10.25z" fill="#49B0E4"/><path d="M85.044 38.209c.545-.31.987-.062.987.556a2.131 2.131 0 01-.98 1.683c-.537.31-.979.062-.979-.556a2.144 2.144 0 01.972-1.683zm-4.357 2.562c.544-.316.979-.062.979.564a2.102 2.102 0 01-.972 1.683l-7.826 4.5c-.545.308-.98.054-.98-.557a2.116 2.116 0 01.973-1.69l7.826-4.5z" fill="#A65CAB"/><mask id="a" maskUnits="userSpaceOnUse" x="47" y="3" width="42" height="48"><path d="M88.747 34.334v4.328a.589.589 0 010 .158v-4.328a.589.589 0 000-.158zm-.02.158v4.328a.589.589 0 01-.042.158V34.65a.588.588 0 00.041-.158zm-.042.158v4.328a1.672 1.672 0 01-.076.158v-4.328a.999.999 0 00.076-.158z" fill="#A65CAB"/><path d="M88.61 34.808v4.328c0 .055-.07.11-.111.165v-4.328l.11-.165zm-.111.165v4.328a2.128 2.128 0 01-.172.186v-4.328c.062-.057.12-.12.172-.186z" fill="#A65CAB"/><path d="M88.327 35.159v4.328a2.335 2.335 0 01-.352.26V35.42c.129-.074.249-.162.359-.261m-.366.261v4.328h-.035V35.46m-39.447.001v4.328a1.378 1.378 0 01-.827-1.147v-4.349a1.371 1.371 0 00.827 1.168z" fill="#A65CAB"/><path d="M87.94 35.44l-.007 4.328-17.7 10.243.007-4.321 17.7-10.25zM66.296 45.69l-.006 4.32-17.81-10.242.006-4.328 17.81 10.25z" fill="#A65CAB"/><path d="M70.24 45.69v4.32a3.012 3.012 0 01-.606.269v-4.321c.209-.073.412-.162.606-.268zm-.606.268v4.32c-.173.059-.35.102-.531.131v-4.32c.18 0 .358-.083.53-.131zm-.559.13v4.321l-.351.055v-4.328l.358-.048" fill="#A65CAB"/><path d="M68.744 46.136v4.328h-.31v-4.328h.303" fill="#A65CAB"/><path d="M68.44 46.157v4.328h-.289v-4.328h.29zm-.289 0v4.328h-.275v-4.328h.275z" fill="#A65CAB"/><path d="M67.876 46.143v4.328h-.27V46.11h.27" fill="#A65CAB"/><path d="M67.607 46.109v4.328l-.276-.048V46.06l.276.048zm-.277-.049v4.329l-.296-.069v-4.328l.297.069zm-.323-.068v4.328a3.296 3.296 0 01-.338-.117v-4.328c.11.047.223.086.338.117z" fill="#A65CAB"/><path d="M66.696 45.875v4.328a2.678 2.678 0 01-.4-.192v-4.328c.128.075.262.14.4.192z" fill="#A65CAB"/><path d="M87.92 33.167c1.096.625 1.102 1.648 0 2.273L70.24 45.69a4.358 4.358 0 01-3.944 0l-17.81-10.23c-1.096-.625-1.103-1.649 0-2.274l17.68-10.27a4.378 4.378 0 013.943 0l17.81 10.25zm-2.876 5.042c.545-.31.987-.062.987.556a2.13 2.13 0 01-.98 1.683c-.538.31-.979.062-.979-.556a2.144 2.144 0 01.972-1.683zm-4.357 2.562c.544-.316.979-.062.979.564a2.102 2.102 0 01-.972 1.683l-7.826 4.5c-.545.308-.98.054-.98-.557a2.117 2.117 0 01.973-1.69l7.826-4.5zm8.06-16.054v4.328a.589.589 0 010 .158v-4.328a.589.589 0 000-.158zm-.02.158v4.328a.589.589 0 01-.042.158v-4.328a.589.589 0 00.041-.158z" fill="#A65CAB"/><path d="M88.685 25.033v4.328a1.672 1.672 0 01-.076.158V25.19c.03-.05.055-.104.076-.158z" fill="#A65CAB"/><path d="M88.61 25.191v4.328c0 .055-.07.11-.111.165v-4.328c.041-.055.076-.11.11-.165zm-.111.165v4.328a2.128 2.128 0 01-.172.185v-4.328c.062-.056.12-.119.172-.185z" fill="#A65CAB"/><path d="M88.327 25.541v4.328a2.335 2.335 0 01-.352.261v-4.328c.129-.074.249-.161.359-.26m-.366.26v4.328h-.035v-4.286m-39.447 0v4.328a1.378 1.378 0 01-.827-1.148v-4.348a1.371 1.371 0 00.827 1.168z" fill="#A65CAB"/><path d="M87.94 25.823l-.007 4.328-17.7 10.243.007-4.322 17.7-10.249zM66.296 36.072l-.006 4.322L48.48 30.15l.006-4.328 17.81 10.25z" fill="#A65CAB"/><path d="M70.24 36.072v4.322a3.012 3.012 0 01-.606.267v-4.32a4.05 4.05 0 00.606-.269zm-.606.268v4.321c-.173.058-.35.102-.531.13v-4.32c.18 0 .358-.082.53-.13zm-.559.13v4.322l-.351.055v-4.328l.358-.048" fill="#A65CAB"/><path d="M68.744 36.519v4.328h-.31v-4.328h.303" fill="#A65CAB"/><path d="M68.44 36.54v4.328h-.289V36.54h.29zm-.289 0v4.328h-.275V36.54h.275z" fill="#A65CAB"/><path d="M67.876 36.526v4.328h-.27v-4.362h.27" fill="#A65CAB"/><path d="M67.607 36.492v4.327l-.276-.048v-4.328l.276.049zm-.277-.049v4.328l-.296-.068v-4.328l.297.068zm-.323-.068v4.328a3.296 3.296 0 01-.338-.117v-4.328c.11.046.223.085.338.117z" fill="#A65CAB"/><path d="M66.696 36.258v4.328a2.687 2.687 0 01-.4-.192v-4.328c.128.075.262.139.4.192z" fill="#A65CAB"/><path d="M87.92 23.55c1.096.624 1.102 1.648 0 2.273l-17.68 10.25a4.36 4.36 0 01-3.944 0l-17.81-10.23c-1.096-.625-1.103-1.648 0-2.273l17.68-10.27a4.378 4.378 0 013.943 0l17.81 10.25zm-2.876 5.041c.545-.309.987-.061.987.557a2.13 2.13 0 01-.98 1.683c-.538.31-.979.062-.979-.556a2.145 2.145 0 01.972-1.684zm-3.44 2.061c.538-.309.979-.062.979.557a2.145 2.145 0 01-.972 1.683c-.545.309-.98.055-.986-.557a2.13 2.13 0 01.979-1.683zm-3.454 2.061c.544-.309.978-.062.985.557a2.145 2.145 0 01-.979 1.683c-.538.309-.979.061-.979-.557a2.13 2.13 0 01.972-1.683zm-3.441 2.061c.537-.309.979-.062.979.556a2.144 2.144 0 01-.972 1.684c-.545.309-.986.061-.986-.557a2.13 2.13 0 01.979-1.683zM88.747 15.1v4.327a.589.589 0 010 .158v-4.328a.589.589 0 000-.157zm-.02.158v4.327a.59.59 0 01-.042.158v-4.327a.589.589 0 00.041-.159z" fill="#A65CAB"/><path d="M88.685 15.415v4.328a1.67 1.67 0 01-.076.158v-4.328a.999.999 0 00.076-.158z" fill="#A65CAB"/><path d="M88.61 15.573v4.328l-.111.165v-4.328c.041-.055.076-.11.11-.165zm-.111.165v4.328a2.114 2.114 0 01-.172.186v-4.328c.062-.057.12-.119.172-.186z" fill="#A65CAB"/><path d="M88.327 15.924v4.328a2.343 2.343 0 01-.352.26v-4.327c.129-.074.249-.162.359-.261m-.366.261v4.328h-.035v-4.287m-39.447 0v4.328a1.378 1.378 0 01-.827-1.147v-4.349a1.371 1.371 0 00.827 1.168z" fill="#A65CAB"/><path d="M87.94 16.206l-.007 4.327-17.7 10.243.007-4.321 17.7-10.25zM66.296 26.448l-.006 4.328-17.81-10.243.006-4.328 17.81 10.243z" fill="#A65CAB"/><path d="M70.24 26.455v4.321a3.012 3.012 0 01-.606.268v-4.321c.209-.073.412-.162.606-.268zm-.606.268v4.32c-.173.059-.35.102-.531.131v-4.32c.18 0 .358-.083.53-.131zm-.559.13v4.321l-.351.055v-4.328l.358-.048" fill="#A65CAB"/><path d="M68.744 26.901v4.328h-.31v-4.328h.303" fill="#A65CAB"/><path d="M68.44 26.922v4.328h-.289v-4.328h.29zm-.289 0v4.328h-.275v-4.328h.275z" fill="#A65CAB"/><path d="M67.876 26.908v4.328h-.27v-4.362h.27" fill="#A65CAB"/><path d="M67.607 26.874v4.328l-.276-.048v-4.328l.276.048zm-.277-.048v4.328l-.296-.069v-4.328l.297.069zm-.323-.069v4.328a3.296 3.296 0 01-.338-.117V26.64c.11.047.223.086.338.117z" fill="#A65CAB"/><path d="M66.696 26.64v4.328a2.678 2.678 0 01-.4-.192v-4.328c.128.075.262.14.4.192z" fill="#A65CAB"/><path d="M87.92 13.932c1.096.625 1.102 1.648 0 2.274L70.24 26.455a4.36 4.36 0 01-3.944 0l-17.81-10.229c-1.096-.625-1.103-1.649 0-2.274l17.68-10.27a4.377 4.377 0 013.943 0l17.81 10.25zm-2.876 5.042c.545-.316.987-.062.987.556a2.13 2.13 0 01-.98 1.683c-.538.31-.979.062-.979-.556a2.145 2.145 0 01.972-1.683zm-4.357 2.562c.544-.309.979-.062.979.564a2.102 2.102 0 01-.972 1.683l-7.826 4.5c-.545.308-.98.054-.98-.557a2.13 2.13 0 01.973-1.69l7.826-4.5z" fill="#A65CAB"/></mask><g filter="url(#filter0_f)" mask="url(#a)"><path d="M87.92 30.646c1.096.626 1.103 1.65 0 2.274L70.24 43.17a4.357 4.357 0 01-3.944 0l-17.81-10.23c-1.096-.624-1.103-1.648 0-2.273l17.68-10.27a4.378 4.378 0 013.943 0l17.81 10.25z" fill="#431477" fill-opacity=".25"/></g><path d="M88.747 24.717v4.328a.58.58 0 010 .158v-4.328a.58.58 0 000-.158z" fill="#946DB6"/><path d="M88.727 24.875v4.328a.591.591 0 01-.042.158v-4.328a.592.592 0 00.041-.158z" fill="#8E72BA"/><path d="M88.685 25.033v4.328a1.635 1.635 0 01-.076.158V25.19c.03-.05.055-.104.076-.158z" fill="#8877BD"/><path d="M88.61 25.19v4.329c0 .055-.07.11-.111.165v-4.328c.041-.055.076-.11.11-.165z" fill="#837CC1"/><path d="M88.499 25.356v4.328a2.128 2.128 0 01-.172.185v-4.328c.062-.057.12-.119.172-.185z" fill="#7D81C4"/><path d="M88.327 25.541v4.328a2.324 2.324 0 01-.352.261v-4.328a2.07 2.07 0 00.359-.26" fill="#7786C8"/><path d="M87.968 25.802v4.328h-.034v-4.287" fill="#718CCB"/><path d="M48.486 25.843v4.328a1.378 1.378 0 01-.827-1.147v-4.348a1.371 1.371 0 00.827 1.168z" fill="#AB58A8"/><path d="M87.94 25.823l-.006 4.328-17.7 10.242.007-4.32 17.7-10.25z" fill="#6399D4"/><path d="M66.296 36.072l-.006 4.321-17.81-10.242.006-4.328 17.81 10.25z" fill="#A65CAB"/><path d="M70.24 36.072v4.321a3.012 3.012 0 01-.606.268v-4.32a4.06 4.06 0 00.607-.269z" fill="#718CCB"/><path d="M69.634 36.34v4.321a3.33 3.33 0 01-.531.13v-4.32c.18 0 .358-.083.53-.13z" fill="#7786C8"/><path d="M69.075 36.47v4.322l-.351.055v-4.328l.358-.048" fill="#7D81C4"/><path d="M68.744 36.519v4.328h-.31v-4.328h.303" fill="#837CC1"/><path d="M68.44 36.54v4.327h-.289V36.54h.29z" fill="#8877BD"/><path d="M68.151 36.54v4.327h-.275V36.54h.275z" fill="#8E72BA"/><path d="M67.876 36.526v4.328h-.27v-4.362h.27" fill="#946DB6"/><path d="M67.607 36.491v4.328l-.276-.048v-4.328l.276.048z" fill="#9967B2"/><path d="M67.33 36.443v4.328l-.296-.069v-4.327l.297.068z" fill="#9F62AF"/><path d="M67.007 36.375v4.328a3.303 3.303 0 01-.338-.117v-4.328c.11.046.223.085.338.117z" fill="#A55DAB"/><path d="M66.697 36.258v4.328a2.68 2.68 0 01-.4-.193v-4.327c.127.075.261.139.4.192z" fill="#AB58A8"/><path d="M87.92 23.55c1.097.624 1.104 1.648 0 2.273l-17.678 10.25a4.357 4.357 0 01-3.945 0l-17.81-10.23c-1.096-.625-1.103-1.648 0-2.273l17.68-10.27a4.378 4.378 0 013.944 0l17.81 10.25z" fill="#49B0E4"/><path d="M85.044 28.591c.545-.309.987-.062.987.557a2.132 2.132 0 01-.98 1.683c-.537.309-.979.062-.979-.557a2.143 2.143 0 01.972-1.683zm-3.44 2.061c.538-.309.979-.062.979.557a2.145 2.145 0 01-.972 1.683c-.545.309-.98.055-.986-.557a2.13 2.13 0 01.979-1.683zm-3.454 2.061c.544-.309.978-.062.985.557a2.146 2.146 0 01-.979 1.683c-.538.309-.979.061-.979-.557a2.13 2.13 0 01.972-1.683zm-3.441 2.061c.537-.31.979-.062.979.556a2.144 2.144 0 01-.972 1.684c-.545.309-.986.061-.986-.557a2.13 2.13 0 01.979-1.683z" fill="#A65CAB"/><mask id="b" maskUnits="userSpaceOnUse" x="47" y="3" width="42" height="48"><path d="M88.747 34.334v4.328a.589.589 0 010 .158v-4.328a.589.589 0 000-.158zm-.02.158v4.328a.589.589 0 01-.042.158V34.65a.588.588 0 00.041-.158zm-.042.158v4.328a1.648 1.648 0 01-.076.158v-4.328a.999.999 0 00.076-.158z" fill="#A65CAB"/><path d="M88.61 34.808v4.328c0 .055-.07.11-.111.165v-4.328l.11-.165zm-.111.165v4.328a2.128 2.128 0 01-.172.186v-4.328c.062-.057.12-.12.172-.186z" fill="#A65CAB"/><path d="M88.327 35.159v4.328a2.335 2.335 0 01-.352.26V35.42c.129-.074.249-.162.359-.261m-.366.261v4.328h-.035V35.46m-39.447.001v4.328a1.378 1.378 0 01-.827-1.147v-4.349a1.371 1.371 0 00.827 1.168z" fill="#A65CAB"/><path d="M87.94 35.44l-.007 4.328-17.7 10.243.007-4.321 17.7-10.25zM66.296 45.69l-.006 4.32-17.81-10.242.006-4.328 17.81 10.25z" fill="#A65CAB"/><path d="M70.24 45.69v4.32a3.012 3.012 0 01-.606.269v-4.321c.209-.073.412-.162.606-.268zm-.606.268v4.32c-.173.059-.35.102-.531.131l-.028-4.32c.165-.037.386-.083.559-.131z" fill="#A65CAB"/><path d="M69.075 46.088v4.321l-.351.055v-4.328l.358-.048" fill="#A65CAB"/><path d="M68.744 46.136v4.328h-.31v-4.328h.303" fill="#A65CAB"/><path d="M68.44 46.157v4.328h-.289v-4.328h.29zm-.289 0v4.328h-.275v-4.328h.275z" fill="#A65CAB"/><path d="M67.876 46.143v4.328h-.27V46.11h.27" fill="#A65CAB"/><path d="M67.607 46.109v4.328l-.276-.048V46.06l.276.048zm-.277-.049v4.329l-.296-.069v-4.328l.297.069zm-.323-.068v4.328a3.296 3.296 0 01-.338-.117v-4.328c.11.047.223.086.338.117z" fill="#A65CAB"/><path d="M66.696 45.875v4.328a2.678 2.678 0 01-.4-.192v-4.328c.128.075.262.14.4.192z" fill="#A65CAB"/><path d="M87.92 33.167c1.096.625 1.102 1.648 0 2.273L70.24 45.69a4.358 4.358 0 01-3.944 0l-17.81-10.23c-1.096-.625-1.103-1.649 0-2.274l17.68-10.27a4.378 4.378 0 013.943 0l17.81 10.25zm-2.876 5.042c.545-.31.987-.062.987.556a2.13 2.13 0 01-.98 1.683c-.538.31-.979.062-.979-.556a2.144 2.144 0 01.972-1.683zm-4.357 2.562c.544-.316.979-.062.979.564a2.102 2.102 0 01-.972 1.683l-7.826 4.5c-.545.308-.98.054-.98-.557a2.117 2.117 0 01.973-1.69l7.826-4.5zm8.06-16.054v4.328a.589.589 0 010 .158v-4.328a.589.589 0 000-.158zm-.02.158v4.328a.589.589 0 01-.042.158v-4.328a.589.589 0 00.041-.158z" fill="#A65CAB"/><path d="M88.685 25.033v4.328a1.648 1.648 0 01-.076.158V25.19c.03-.05.055-.104.076-.158z" fill="#A65CAB"/><path d="M88.61 25.191v4.328c0 .055-.07.11-.111.165v-4.328c.041-.055.076-.11.11-.165zm-.111.165v4.328a2.128 2.128 0 01-.172.185v-4.328c.062-.056.12-.119.172-.185z" fill="#A65CAB"/><path d="M88.327 25.541v4.328a2.335 2.335 0 01-.352.261v-4.328c.129-.074.249-.161.359-.26m-.366.26v4.328h-.035v-4.286m-39.447 0v4.328a1.378 1.378 0 01-.827-1.148v-4.348a1.371 1.371 0 00.827 1.168z" fill="#A65CAB"/><path d="M87.94 25.823l-.007 4.328-17.7 10.243.007-4.322 17.7-10.249zM66.296 36.072l-.006 4.322L48.48 30.15l.006-4.328 17.81 10.25z" fill="#A65CAB"/><path d="M70.24 36.072v4.322a3.012 3.012 0 01-.606.267v-4.32a4.05 4.05 0 00.606-.269zm-.606.268v4.321c-.173.058-.35.102-.531.13v-4.32c.18 0 .358-.082.53-.13zm-.559.13v4.322l-.351.055v-4.328l.358-.048" fill="#A65CAB"/><path d="M68.744 36.519v4.328h-.31v-4.328h.303" fill="#A65CAB"/><path d="M68.44 36.54v4.328h-.289V36.54h.29zm-.289 0v4.328h-.275V36.54h.275z" fill="#A65CAB"/><path d="M67.876 36.526v4.328h-.27v-4.362h.27" fill="#A65CAB"/><path d="M67.607 36.492v4.327l-.276-.048v-4.328l.276.049zm-.277-.049v4.328l-.296-.068v-4.328l.297.068zm-.323-.068v4.328a3.296 3.296 0 01-.338-.117v-4.328c.11.046.223.085.338.117z" fill="#A65CAB"/><path d="M66.696 36.258v4.328a2.687 2.687 0 01-.4-.192v-4.328c.128.075.262.139.4.192z" fill="#A65CAB"/><path d="M87.92 23.55c1.096.624 1.102 1.648 0 2.273l-17.68 10.25a4.359 4.359 0 01-3.944 0l-17.81-10.23c-1.096-.625-1.103-1.648 0-2.273l17.68-10.27a4.378 4.378 0 013.943 0l17.81 10.25zm-2.876 5.041c.545-.309.987-.061.987.557a2.13 2.13 0 01-.98 1.683c-.538.31-.979.062-.979-.556a2.145 2.145 0 01.972-1.684zm-3.44 2.061c.538-.309.979-.062.979.557a2.145 2.145 0 01-.972 1.683c-.545.309-.98.055-.986-.557a2.13 2.13 0 01.979-1.683zm-3.454 2.061c.544-.309.978-.062.985.557a2.145 2.145 0 01-.979 1.683c-.538.309-.979.061-.979-.557a2.13 2.13 0 01.972-1.683zm-3.441 2.061c.537-.309.979-.062.979.556a2.144 2.144 0 01-.972 1.684c-.545.309-.986.061-.986-.557a2.13 2.13 0 01.979-1.683zM88.747 15.1v4.327a.59.59 0 010 .158v-4.328a.589.589 0 000-.157zm-.02.158v4.327a.588.588 0 01-.042.158v-4.327a.589.589 0 00.041-.159z" fill="#A65CAB"/><path d="M88.685 15.415v4.328a1.636 1.636 0 01-.076.158v-4.328a.999.999 0 00.076-.158z" fill="#A65CAB"/><path d="M88.61 15.573v4.328l-.111.165v-4.328c.041-.055.076-.11.11-.165zm-.111.165v4.328a2.114 2.114 0 01-.172.186v-4.328c.062-.057.12-.119.172-.186z" fill="#A65CAB"/><path d="M88.327 15.924v4.328a2.343 2.343 0 01-.352.26v-4.327c.129-.074.249-.162.359-.261m-.366.261v4.328h-.035v-4.287m-39.447 0v4.328a1.378 1.378 0 01-.827-1.147v-4.349a1.371 1.371 0 00.827 1.168z" fill="#A65CAB"/><path d="M87.94 16.206l-.007 4.327-17.7 10.243.007-4.321 17.7-10.25zM66.296 26.448l-.006 4.328-17.81-10.243.006-4.328 17.81 10.243z" fill="#A65CAB"/><path d="M70.24 26.455v4.321a3.012 3.012 0 01-.606.268v-4.321c.209-.073.412-.162.606-.268zm-.606.268v4.32c-.173.059-.35.102-.531.131v-4.32c.18 0 .358-.083.53-.131zm-.559.13v4.321l-.351.055v-4.328l.358-.048" fill="#A65CAB"/><path d="M68.744 26.901v4.328h-.31v-4.328h.303" fill="#A65CAB"/><path d="M68.44 26.922v4.328h-.289v-4.328h.29zm-.289 0v4.328h-.275v-4.328h.275z" fill="#A65CAB"/><path d="M67.876 26.908v4.328h-.27v-4.362h.27" fill="#A65CAB"/><path d="M67.607 26.874v4.328l-.276-.048v-4.328l.276.048zm-.277-.048v4.328l-.296-.069v-4.328l.297.069zm-.323-.069v4.328a3.296 3.296 0 01-.338-.117V26.64c.11.047.223.086.338.117z" fill="#A65CAB"/><path d="M66.696 26.64v4.328a2.678 2.678 0 01-.4-.192v-4.328c.128.075.262.14.4.192z" fill="#A65CAB"/><path d="M87.92 13.932c1.096.625 1.102 1.648 0 2.274L70.24 26.455a4.359 4.359 0 01-3.944 0l-17.81-10.229c-1.096-.625-1.103-1.649 0-2.274l17.68-10.27a4.377 4.377 0 013.943 0l17.81 10.25zm-2.876 5.042c.545-.316.987-.062.987.556a2.13 2.13 0 01-.98 1.683c-.538.31-.979.062-.979-.556a2.145 2.145 0 01.972-1.683zm-4.357 2.562c.544-.309.979-.062.979.564a2.102 2.102 0 01-.972 1.683l-7.826 4.5c-.545.308-.98.054-.98-.557a2.13 2.13 0 01.973-1.69l7.826-4.5z" fill="#A65CAB"/></mask><g filter="url(#filter1_f)" mask="url(#b)"><path d="M87.92 20.256c1.096.625 1.103 1.649 0 2.274L70.24 32.78a4.356 4.356 0 01-3.944 0l-17.81-10.23c-1.096-.625-1.103-1.648 0-2.273l17.68-10.27a4.378 4.378 0 013.943 0l17.81 10.25z" fill="#431477" fill-opacity=".25"/></g><path d="M88.747 15.1v4.327a.58.58 0 010 .158v-4.328a.58.58 0 000-.158z" fill="#946DB6"/><path d="M88.727 15.257v4.328a.591.591 0 01-.042.158v-4.328a.592.592 0 00.041-.158z" fill="#8E72BA"/><path d="M88.685 15.415v4.328a1.635 1.635 0 01-.076.158v-4.328a.999.999 0 00.076-.158z" fill="#8877BD"/><path d="M88.61 15.573v4.328l-.111.165v-4.328c.041-.055.076-.11.11-.165z" fill="#837CC1"/><path d="M88.499 15.738v4.328a2.114 2.114 0 01-.172.186v-4.328a1.49 1.49 0 00.172-.186z" fill="#7D81C4"/><path d="M88.327 15.924v4.328a2.324 2.324 0 01-.352.26v-4.327a2.07 2.07 0 00.359-.261" fill="#7786C8"/><path d="M87.968 16.185v4.328h-.034v-4.287" fill="#718CCB"/><path d="M48.486 16.226v4.328a1.378 1.378 0 01-.827-1.147v-4.349a1.37 1.37 0 00.827 1.168z" fill="#AB58A8"/><path d="M87.94 16.205l-.006 4.328-17.7 10.243.007-4.321 17.7-10.25z" fill="#6399D4"/><path d="M66.296 26.448l-.006 4.328-17.81-10.243.006-4.328 17.81 10.243z" fill="#A65CAB"/><path d="M70.24 26.455v4.32a3.012 3.012 0 01-.606.269v-4.321c.21-.073.412-.162.607-.268z" fill="#718CCB"/><path d="M69.634 26.723v4.32a3.33 3.33 0 01-.531.131v-4.32c.18 0 .358-.083.53-.131z" fill="#7786C8"/><path d="M69.075 26.853v4.321l-.351.055v-4.328l.358-.048" fill="#7D81C4"/><path d="M68.744 26.901v4.328h-.31v-4.328h.303" fill="#837CC1"/><path d="M68.44 26.922v4.328h-.289v-4.328h.29z" fill="#8877BD"/><path d="M68.151 26.922v4.328h-.275v-4.328h.275z" fill="#8E72BA"/><path d="M67.876 26.908v4.328h-.27v-4.362h.27" fill="#946DB6"/><path d="M67.607 26.874v4.328l-.276-.048v-4.328l.276.048z" fill="#9967B2"/><path d="M67.33 26.826v4.328l-.296-.069v-4.328l.297.069z" fill="#9F62AF"/><path d="M67.007 26.757v4.328a3.279 3.279 0 01-.338-.117V26.64a2.7 2.7 0 00.338.117z" fill="#A55DAB"/><path d="M66.697 26.64v4.328a2.68 2.68 0 01-.4-.192v-4.328c.127.075.261.14.4.192z" fill="#AB58A8"/><path d="M87.92 13.932c1.097.625 1.104 1.648 0 2.274L70.243 26.455a4.357 4.357 0 01-3.945 0l-17.81-10.229c-1.096-.625-1.103-1.649 0-2.274l17.68-10.27a4.378 4.378 0 013.944 0l17.81 10.25z" fill="#21D4FD"/><path d="M85.044 18.974c.545-.316.987-.062.987.556a2.132 2.132 0 01-.98 1.683c-.537.31-.979.062-.979-.556a2.143 2.143 0 01.972-1.683zm-4.357 2.562c.544-.309.979-.062.979.564a2.103 2.103 0 01-.972 1.683l-7.826 4.5c-.545.308-.98.054-.98-.557a2.13 2.13 0 01.973-1.69l7.826-4.5z" fill="#A65CAB"/><path d="M41.088 50.4v4.327a.58.58 0 010 .158v-4.328a.58.58 0 000-.158z" fill="#946DB6"/><path d="M41.068 50.557v4.328a.589.589 0 01-.042.158v-4.328a.589.589 0 00.042-.158z" fill="#8E72BA"/><path d="M41.026 50.715v4.328a1.649 1.649 0 01-.076.158v-4.328a.999.999 0 00.076-.158z" fill="#8877BD"/><path d="M40.95 50.873v4.328c0 .055-.069.11-.11.165v-4.328l.11-.165z" fill="#837CC1"/><path d="M40.84 51.038v4.328a2.128 2.128 0 01-.172.185v-4.327a1.49 1.49 0 00.172-.186z" fill="#7D81C4"/><path d="M40.668 51.224v4.327a2.33 2.33 0 01-.352.261v-4.327a2.07 2.07 0 00.359-.261" fill="#7786C8"/><path d="M40.31 51.485v4.327h-.035v-4.286" fill="#718CCB"/><path d="M.827 51.526v4.328A1.379 1.379 0 010 54.706v-4.348a1.37 1.37 0 00.827 1.168z" fill="#AB58A8"/><path d="M40.282 51.505l-.007 4.328-17.7 10.243.007-4.321 17.7-10.25z" fill="#6399D4"/><path d="M18.638 61.755l-.007 4.32L.82 55.834l.006-4.328 17.81 10.25z" fill="#A65CAB"/><path d="M22.582 61.755v4.32a3.007 3.007 0 01-.607.269v-4.321a4.16 4.16 0 00.607-.268z" fill="#718CCB"/><path d="M21.975 62.023v4.32c-.173.059-.35.102-.531.131v-4.32c.18 0 .358-.083.53-.131z" fill="#7786C8"/><path d="M21.416 62.153v4.321l-.351.055v-4.328l.358-.048" fill="#7D81C4"/><path d="M21.085 62.201v4.328h-.31v-4.328h.303" fill="#837CC1"/><path d="M20.782 62.222v4.328h-.29v-4.328h.29z" fill="#8877BD"/><path d="M20.492 62.222v4.328h-.275v-4.328h.275z" fill="#8E72BA"/><path d="M20.217 62.208v4.328h-.27v-4.362h.27" fill="#946DB6"/><path d="M19.948 62.174v4.328l-.276-.048v-4.328l.276.048z" fill="#9967B2"/><path d="M19.672 62.126v4.327l-.297-.068v-4.328l.297.069z" fill="#9F62AF"/><path d="M19.348 62.057v4.328a3.255 3.255 0 01-.338-.117V61.94c.11.046.223.085.338.117z" fill="#A55DAB"/><path d="M19.038 61.94v4.328a2.679 2.679 0 01-.4-.192v-4.328c.127.075.261.14.4.192z" fill="#AB58A8"/><path d="M40.262 49.231c1.096.625 1.103 1.649 0 2.274l-17.68 10.25a4.357 4.357 0 01-3.943 0L.829 51.525c-1.097-.624-1.104-1.648 0-2.273l17.679-10.27a4.377 4.377 0 013.944 0l17.81 10.25z" fill="#49B0E4"/><path d="M37.386 54.274c.544-.31.986-.062.986.556a2.132 2.132 0 01-.98 1.683c-.537.31-.979.062-.979-.556a2.144 2.144 0 01.973-1.683zm-4.358 2.562c.545-.316.979-.062.979.563a2.103 2.103 0 01-.972 1.683l-7.826 4.5c-.545.31-.98.055-.98-.556a2.118 2.118 0 01.973-1.69l7.826-4.5z" fill="#A65CAB"/><mask id="c" maskUnits="userSpaceOnUse" x="0" y="19" width="42" height="48"><path d="M41.088 50.4v4.327a.58.58 0 010 .158v-4.328a.58.58 0 000-.158zm-.02.157v4.328a.592.592 0 01-.042.158v-4.328a.592.592 0 00.042-.158z" fill="#A65CAB"/><path d="M41.026 50.715v4.328a1.66 1.66 0 01-.076.158v-4.328a.999.999 0 00.076-.158zm-.076.158v4.328c0 .055-.069.11-.11.165v-4.328l.11-.165zm-.11.165v4.328a2.115 2.115 0 01-.172.185v-4.327a1.49 1.49 0 00.172-.186z" fill="#A65CAB"/><path d="M40.668 51.224v4.327a2.323 2.323 0 01-.352.261v-4.327c.129-.074.249-.162.359-.261m-.365.261v4.328h-.035v-4.287m-39.448 0v4.328A1.378 1.378 0 010 54.706v-4.348a1.37 1.37 0 00.827 1.168z" fill="#A65CAB"/><path d="M40.282 51.505l-.007 4.328-17.7 10.243.007-4.321 17.7-10.25zm-21.644 10.25l-.007 4.32L.82 55.834l.006-4.328 17.81 10.25z" fill="#A65CAB"/><path d="M22.582 61.755v4.32a3.012 3.012 0 01-.607.269v-4.321a4.16 4.16 0 00.607-.268zm-.607.268v4.32c-.173.059-.35.102-.531.131v-4.32c.18 0 .358-.083.53-.131zm-.559.13v4.321l-.351.055v-4.328l.358-.048" fill="#A65CAB"/><path d="M21.085 62.201v4.328h-.31v-4.328h.303" fill="#A65CAB"/><path d="M20.782 62.222v4.328h-.29v-4.328h.29z" fill="#A65CAB"/><path d="M20.492 62.222v4.328h-.275v-4.328h.276zm-.275-.014v4.328h-.27v-4.362h.27" fill="#A65CAB"/><path d="M19.948 62.174v4.328l-.276-.048v-4.328l.276.048zm-.276-.048v4.328l-.297-.07v-4.327l.297.069zm-.324-.069v4.328a3.255 3.255 0 01-.338-.117V61.94c.11.046.223.085.338.117z" fill="#A65CAB"/><path d="M19.038 61.94v4.328a2.679 2.679 0 01-.4-.192v-4.328c.127.075.261.14.4.192z" fill="#A65CAB"/><path d="M40.26 49.231c1.097.625 1.104 1.65 0 2.274l-17.678 10.25a4.36 4.36 0 01-3.944 0L.828 51.525c-1.097-.624-1.104-1.648-.001-2.273l17.68-10.27a4.378 4.378 0 013.943 0l17.81 10.25zm-2.874 5.043c.544-.31.986-.062.986.556a2.13 2.13 0 01-.98 1.683c-.537.31-.979.062-.979-.556a2.145 2.145 0 01.973-1.683zm-4.358 2.562c.545-.316.979-.062.979.563a2.104 2.104 0 01-.972 1.683l-7.826 4.5c-.545.31-.98.055-.98-.556a2.116 2.116 0 01.973-1.69l7.826-4.5zm8.06-16.054v4.328a.58.58 0 010 .158V40.94a.58.58 0 000-.158zm-.02.158v4.328a.592.592 0 01-.042.158v-4.328a.592.592 0 00.042-.158z" fill="#A65CAB"/><path d="M41.026 41.098v4.328a1.649 1.649 0 01-.076.158v-4.328c.03-.05.055-.104.076-.158zm-.076.158v4.328c0 .054-.069.11-.11.164v-4.327c.041-.055.076-.11.11-.165zm-.11.164v4.328a2.114 2.114 0 01-.172.186v-4.328a1.49 1.49 0 00.172-.185z" fill="#A65CAB"/><path d="M40.668 41.606v4.328a2.323 2.323 0 01-.352.261v-4.328c.129-.074.249-.161.359-.26m-.365.26v4.328h-.035v-4.287m-39.448 0v4.328A1.378 1.378 0 010 45.09v-4.35a1.37 1.37 0 00.827 1.168z" fill="#A65CAB"/><path d="M40.282 41.888l-.007 4.328-17.7 10.242.007-4.32 17.7-10.25zM18.638 52.137l-.007 4.321L.82 46.216l.006-4.328 17.81 10.25z" fill="#A65CAB"/><path d="M22.582 52.137v4.321a3.007 3.007 0 01-.607.268v-4.32a4.06 4.06 0 00.607-.269zm-.607.268v4.321c-.173.058-.35.102-.531.13v-4.32c.18 0 .358-.083.53-.13zm-.559.131v4.32l-.351.056v-4.328l.358-.048" fill="#A65CAB"/><path d="M21.085 52.584v4.328h-.31v-4.328h.303" fill="#A65CAB"/><path d="M20.782 52.604v4.328h-.29v-4.328h.29z" fill="#A65CAB"/><path d="M20.492 52.604v4.328h-.275v-4.328h.276zm-.275-.014v4.328h-.27v-4.362h.27" fill="#A65CAB"/><path d="M19.948 52.556v4.328l-.276-.048v-4.328l.276.048zm-.276-.048v4.328l-.297-.069V52.44l.297.07zm-.324-.068v4.327a3.278 3.278 0 01-.338-.116v-4.328c.11.046.223.085.338.117z" fill="#A65CAB"/><path d="M19.038 52.323v4.328a2.68 2.68 0 01-.4-.193V52.13c.127.075.261.14.4.193z" fill="#A65CAB"/><path d="M40.26 39.614c1.097.625 1.104 1.649 0 2.274l-17.678 10.25a4.36 4.36 0 01-3.944 0L.828 41.907C-.27 41.283-.277 40.26.826 39.635l17.68-10.27a4.378 4.378 0 013.943 0l17.81 10.249zm-2.874 5.042c.544-.309.986-.062.986.557a2.13 2.13 0 01-.98 1.683c-.537.309-.979.062-.979-.557a2.145 2.145 0 01.973-1.683zm-3.441 2.061c.538-.31.979-.062.979.556a2.143 2.143 0 01-.972 1.684c-.545.309-.98.054-.986-.557a2.132 2.132 0 01.979-1.683zm-3.455 2.061c.545-.31.98-.062.986.556a2.144 2.144 0 01-.979 1.683c-.538.31-.979.062-.979-.556a2.13 2.13 0 01.972-1.683zm-3.44 2.061c.538-.31.979-.062.979.556a2.145 2.145 0 01-.972 1.683c-.545.31-.986.062-.986-.556a2.132 2.132 0 01.979-1.683zm14.038-19.675v4.328a.58.58 0 010 .158v-4.328a.58.58 0 000-.158zm-.02.158v4.328a.592.592 0 01-.042.158V31.48a.591.591 0 00.042-.158z" fill="#A65CAB"/><path d="M41.026 31.48v4.328a1.649 1.649 0 01-.076.158v-4.328a.999.999 0 00.076-.158zm-.076.158v4.328l-.11.165v-4.328c.041-.055.076-.11.11-.165zm-.11.165v4.328a2.129 2.129 0 01-.172.185V31.99c.062-.057.12-.12.172-.186z" fill="#A65CAB"/><path d="M40.668 31.989v4.327a2.33 2.33 0 01-.352.261V32.25c.129-.074.249-.162.359-.261m-.365.261v4.328h-.035V32.29m-39.448 0v4.329A1.378 1.378 0 010 35.47v-4.348a1.37 1.37 0 00.827 1.168z" fill="#A65CAB"/><path d="M40.282 32.27l-.007 4.328-17.7 10.243.007-4.321 17.7-10.25zM18.638 42.513l-.007 4.328L.82 36.598l.006-4.328 17.81 10.243z" fill="#A65CAB"/><path d="M22.582 42.52v4.32a3.012 3.012 0 01-.607.269v-4.321c.21-.073.412-.162.607-.268zm-.607.268v4.32a3.34 3.34 0 01-.531.131v-4.32c.18 0 .358-.083.53-.131zm-.559.13v4.321l-.351.055v-4.328l.358-.048" fill="#A65CAB"/><path d="M21.085 42.966v4.328h-.31v-4.328h.303" fill="#A65CAB"/><path d="M20.782 42.987v4.328h-.29v-4.328h.29z" fill="#A65CAB"/><path d="M20.492 42.987v4.328h-.275v-4.328h.276zm-.275-.014v4.328h-.27v-4.362h.27" fill="#A65CAB"/><path d="M19.948 42.939v4.328l-.276-.048V42.89l.276.048zm-.276-.049v4.329l-.297-.07v-4.327l.297.069zm-.324-.068v4.328a3.303 3.303 0 01-.338-.117v-4.328c.11.046.223.085.338.117z" fill="#A65CAB"/><path d="M19.038 42.705v4.328a2.68 2.68 0 01-.4-.192v-4.328c.127.075.261.14.4.192z" fill="#A65CAB"/><path d="M40.26 29.996c1.097.626 1.104 1.65 0 2.274L22.582 42.52a4.358 4.358 0 01-3.945 0L.827 32.29c-1.096-.624-1.103-1.648 0-2.273l17.68-10.27a4.378 4.378 0 013.943 0l17.81 10.25zm-2.874 5.043c.544-.316.986-.062.986.556a2.13 2.13 0 01-.98 1.683c-.537.31-.979.062-.979-.556a2.144 2.144 0 01.973-1.683zm-4.358 2.562c.545-.309.979-.062.979.563a2.104 2.104 0 01-.972 1.683l-7.826 4.5c-.545.31-.98.055-.98-.556a2.13 2.13 0 01.973-1.69l7.826-4.5z" fill="#A65CAB"/></mask><g filter="url(#filter2_f)" mask="url(#c)"><path d="M40.26 46.711c1.097.625 1.104 1.649 0 2.274l-17.679 10.25a4.357 4.357 0 01-3.944 0L.827 49.005c-1.096-.624-1.103-1.648 0-2.273l17.68-10.27a4.377 4.377 0 013.943 0l17.81 10.25z" fill="#431477" fill-opacity=".25"/></g><path d="M41.088 40.782v4.328a.58.58 0 010 .157V40.94a.58.58 0 000-.158z" fill="#946DB6"/><path d="M41.068 40.94v4.328a.589.589 0 01-.042.158v-4.328a.589.589 0 00.042-.158z" fill="#8E72BA"/><path d="M41.026 41.098v4.328a1.649 1.649 0 01-.076.158v-4.328c.03-.05.055-.104.076-.158z" fill="#8877BD"/><path d="M40.95 41.256v4.328c0 .054-.069.11-.11.164V41.42c.041-.055.076-.11.11-.164z" fill="#837CC1"/><path d="M40.84 41.42v4.328a2.129 2.129 0 01-.172.186v-4.328c.062-.057.12-.119.172-.186z" fill="#7D81C4"/><path d="M40.668 41.606v4.328a2.323 2.323 0 01-.352.261v-4.328c.129-.074.249-.161.359-.26" fill="#7786C8"/><path d="M40.31 41.867v4.328h-.035v-4.287" fill="#718CCB"/><path d="M.827 41.908v4.328A1.378 1.378 0 010 45.09v-4.35a1.37 1.37 0 00.827 1.168z" fill="#AB58A8"/><path d="M40.282 41.888l-.007 4.328-17.7 10.242.007-4.32 17.7-10.25z" fill="#6399D4"/><path d="M18.638 52.137l-.007 4.321L.82 46.216l.006-4.328 17.81 10.25z" fill="#A65CAB"/><path d="M22.582 52.137v4.321a3.012 3.012 0 01-.607.268v-4.32a4.06 4.06 0 00.607-.269z" fill="#718CCB"/><path d="M21.975 52.405v4.321c-.173.058-.35.102-.531.13v-4.32c.18 0 .358-.083.53-.13z" fill="#7786C8"/><path d="M21.416 52.536v4.32l-.351.056v-4.328l.358-.048" fill="#7D81C4"/><path d="M21.085 52.584v4.327h-.31v-4.327h.303" fill="#837CC1"/><path d="M20.782 52.604v4.328h-.29v-4.328h.29z" fill="#8877BD"/><path d="M20.492 52.604v4.328h-.275v-4.328h.275z" fill="#8E72BA"/><path d="M20.217 52.59v4.328h-.27v-4.362h.27" fill="#946DB6"/><path d="M19.948 52.556v4.328l-.276-.048v-4.328l.276.048z" fill="#9967B2"/><path d="M19.672 52.508v4.328l-.297-.069V52.44l.297.07z" fill="#9F62AF"/><path d="M19.348 52.44v4.327a3.303 3.303 0 01-.338-.117v-4.327c.11.046.223.085.338.116z" fill="#A55DAB"/><path d="M19.038 52.323v4.328a2.679 2.679 0 01-.4-.193V52.13c.127.075.261.14.4.193z" fill="#AB58A8"/><path d="M40.262 39.614c1.096.625 1.103 1.649 0 2.274l-17.68 10.25a4.357 4.357 0 01-3.943 0L.829 41.907c-1.097-.625-1.104-1.648 0-2.274l17.679-10.27a4.377 4.377 0 013.944 0l17.81 10.25z" fill="#49B0E4"/><path d="M37.386 44.656c.544-.309.986-.062.986.556a2.131 2.131 0 01-.98 1.684c-.537.309-.979.061-.979-.557a2.143 2.143 0 01.973-1.683zm-3.441 2.061c.538-.31.979-.062.979.556a2.144 2.144 0 01-.972 1.684c-.545.309-.98.054-.986-.557a2.13 2.13 0 01.979-1.683zm-3.455 2.061c.545-.31.98-.062.986.556a2.144 2.144 0 01-.979 1.683c-.538.31-.979.062-.979-.556a2.131 2.131 0 01.972-1.683zm-3.44 2.061c.538-.31.979-.062.979.556a2.145 2.145 0 01-.972 1.683c-.545.31-.986.062-.986-.556a2.132 2.132 0 01.979-1.683z" fill="#A65CAB"/><mask id="d" maskUnits="userSpaceOnUse" x="0" y="19" width="42" height="48"><path d="M41.088 50.4v4.327a.58.58 0 010 .158v-4.328a.58.58 0 000-.158zm-.02.157v4.328a.592.592 0 01-.042.158v-4.328a.592.592 0 00.042-.158z" fill="#A65CAB"/><path d="M41.026 50.715v4.328a1.66 1.66 0 01-.076.158v-4.328a.999.999 0 00.076-.158zm-.076.158v4.328c0 .055-.069.11-.11.165v-4.328l.11-.165zm-.11.165v4.328a2.115 2.115 0 01-.172.185v-4.327a1.49 1.49 0 00.172-.186z" fill="#A65CAB"/><path d="M40.668 51.224v4.327a2.323 2.323 0 01-.352.261v-4.327c.129-.074.249-.162.359-.261m-.365.261v4.328h-.035v-4.287m-39.448 0v4.328A1.378 1.378 0 010 54.706v-4.348a1.37 1.37 0 00.827 1.168z" fill="#A65CAB"/><path d="M40.282 51.505l-.007 4.328-17.7 10.243.007-4.321 17.7-10.25zm-21.644 10.25l-.007 4.32L.82 55.834l.006-4.328 17.81 10.25z" fill="#A65CAB"/><path d="M22.582 61.755v4.32a3.012 3.012 0 01-.607.269v-4.321a4.16 4.16 0 00.607-.268zm-.607.268v4.32c-.173.059-.35.102-.531.131v-4.32c.18 0 .358-.083.53-.131zm-.559.13v4.321l-.351.055v-4.328l.358-.048" fill="#A65CAB"/><path d="M21.085 62.201v4.328h-.31v-4.328h.303" fill="#A65CAB"/><path d="M20.782 62.222v4.328h-.29v-4.328h.29z" fill="#A65CAB"/><path d="M20.492 62.222v4.328h-.275v-4.328h.276zm-.275-.014v4.328h-.27v-4.362h.27" fill="#A65CAB"/><path d="M19.948 62.174v4.328l-.276-.048v-4.328l.276.048zm-.276-.048v4.328l-.297-.07v-4.327l.297.069zm-.324-.069v4.328a3.255 3.255 0 01-.338-.117V61.94c.11.046.223.085.338.117z" fill="#A65CAB"/><path d="M19.038 61.94v4.328a2.679 2.679 0 01-.4-.192v-4.328c.127.075.261.14.4.192z" fill="#A65CAB"/><path d="M40.26 49.231c1.097.625 1.104 1.65 0 2.274l-17.678 10.25a4.36 4.36 0 01-3.944 0L.828 51.525c-1.097-.624-1.104-1.648-.001-2.273l17.68-10.27a4.378 4.378 0 013.943 0l17.81 10.25zm-2.874 5.043c.544-.31.986-.062.986.556a2.13 2.13 0 01-.98 1.683c-.537.31-.979.062-.979-.556a2.145 2.145 0 01.973-1.683zm-4.358 2.562c.545-.316.979-.062.979.563a2.104 2.104 0 01-.972 1.683l-7.826 4.5c-.545.31-.98.055-.98-.556a2.116 2.116 0 01.973-1.69l7.826-4.5zm8.06-16.054v4.328a.58.58 0 010 .158V40.94a.58.58 0 000-.158zm-.02.158v4.328a.592.592 0 01-.042.158v-4.328a.592.592 0 00.042-.158z" fill="#A65CAB"/><path d="M41.026 41.098v4.328a1.649 1.649 0 01-.076.158v-4.328c.03-.05.055-.104.076-.158zm-.076.158v4.328c0 .054-.069.11-.11.164v-4.327c.041-.055.076-.11.11-.165zm-.11.164v4.328a2.114 2.114 0 01-.172.186v-4.328a1.49 1.49 0 00.172-.185z" fill="#A65CAB"/><path d="M40.668 41.606v4.328a2.323 2.323 0 01-.352.261v-4.328c.129-.074.249-.161.359-.26m-.365.26v4.328h-.035v-4.287m-39.448 0v4.328A1.378 1.378 0 010 45.09v-4.35a1.37 1.37 0 00.827 1.168z" fill="#A65CAB"/><path d="M40.282 41.888l-.007 4.328-17.7 10.242.007-4.32 17.7-10.25zM18.638 52.137l-.007 4.321L.82 46.216l.006-4.328 17.81 10.25z" fill="#A65CAB"/><path d="M22.582 52.137v4.321a3.007 3.007 0 01-.607.268v-4.32a4.06 4.06 0 00.607-.269zm-.607.268v4.321c-.173.058-.35.102-.531.13v-4.32c.18 0 .358-.083.53-.13zm-.559.131v4.32l-.351.056v-4.328l.358-.048" fill="#A65CAB"/><path d="M21.085 52.584v4.328h-.31v-4.328h.303" fill="#A65CAB"/><path d="M20.782 52.604v4.328h-.29v-4.328h.29z" fill="#A65CAB"/><path d="M20.492 52.604v4.328h-.275v-4.328h.276zm-.275-.014v4.328h-.27v-4.362h.27" fill="#A65CAB"/><path d="M19.948 52.556v4.328l-.276-.048v-4.328l.276.048zm-.276-.048v4.328l-.297-.069V52.44l.297.07zm-.324-.068v4.327a3.278 3.278 0 01-.338-.116v-4.328c.11.046.223.085.338.117z" fill="#A65CAB"/><path d="M19.038 52.323v4.328a2.68 2.68 0 01-.4-.193V52.13c.127.075.261.14.4.193z" fill="#A65CAB"/><path d="M40.26 39.614c1.097.625 1.104 1.649 0 2.274l-17.678 10.25a4.36 4.36 0 01-3.944 0L.828 41.907C-.27 41.283-.277 40.26.826 39.635l17.68-10.27a4.378 4.378 0 013.943 0l17.81 10.249zm-2.874 5.042c.544-.309.986-.062.986.557a2.13 2.13 0 01-.98 1.683c-.537.309-.979.062-.979-.557a2.145 2.145 0 01.973-1.683zm-3.441 2.061c.538-.31.979-.062.979.556a2.143 2.143 0 01-.972 1.684c-.545.309-.98.054-.986-.557a2.132 2.132 0 01.979-1.683zm-3.455 2.061c.545-.31.98-.062.986.556a2.144 2.144 0 01-.979 1.683c-.538.31-.979.062-.979-.556a2.13 2.13 0 01.972-1.683zm-3.44 2.061c.538-.31.979-.062.979.556a2.145 2.145 0 01-.972 1.683c-.545.31-.986.062-.986-.556a2.132 2.132 0 01.979-1.683zm14.038-19.675v4.328a.58.58 0 010 .158v-4.328a.58.58 0 000-.158zm-.02.158v4.328a.592.592 0 01-.042.158V31.48a.591.591 0 00.042-.158z" fill="#A65CAB"/><path d="M41.026 31.48v4.328a1.649 1.649 0 01-.076.158v-4.328a.999.999 0 00.076-.158zm-.076.158v4.328l-.11.165v-4.328c.041-.055.076-.11.11-.165zm-.11.165v4.328a2.129 2.129 0 01-.172.185V31.99c.062-.057.12-.12.172-.186z" fill="#A65CAB"/><path d="M40.668 31.989v4.327a2.33 2.33 0 01-.352.261V32.25c.129-.074.249-.162.359-.261m-.365.261v4.328h-.035V32.29m-39.448 0v4.329A1.378 1.378 0 010 35.47v-4.348a1.37 1.37 0 00.827 1.168z" fill="#A65CAB"/><path d="M40.282 32.27l-.007 4.328-17.7 10.243.007-4.321 17.7-10.25zM18.638 42.513l-.007 4.328L.82 36.598l.006-4.328 17.81 10.243z" fill="#A65CAB"/><path d="M22.582 42.52v4.32a3.012 3.012 0 01-.607.269v-4.321c.21-.073.412-.162.607-.268zm-.607.268v4.32a3.34 3.34 0 01-.531.131v-4.32c.18 0 .358-.083.53-.131zm-.559.13v4.321l-.351.055v-4.328l.358-.048" fill="#A65CAB"/><path d="M21.085 42.966v4.328h-.31v-4.328h.303" fill="#A65CAB"/><path d="M20.782 42.987v4.328h-.29v-4.328h.29z" fill="#A65CAB"/><path d="M20.492 42.987v4.328h-.275v-4.328h.276zm-.275-.014v4.328h-.27v-4.362h.27" fill="#A65CAB"/><path d="M19.948 42.939v4.328l-.276-.048V42.89l.276.048zm-.276-.049v4.329l-.297-.07v-4.327l.297.069zm-.324-.068v4.328a3.303 3.303 0 01-.338-.117v-4.328c.11.046.223.085.338.117z" fill="#A65CAB"/><path d="M19.038 42.705v4.328a2.68 2.68 0 01-.4-.192v-4.328c.127.075.261.14.4.192z" fill="#A65CAB"/><path d="M40.26 29.996c1.097.626 1.104 1.65 0 2.274L22.582 42.52a4.358 4.358 0 01-3.945 0L.827 32.29c-1.096-.624-1.103-1.648 0-2.273l17.68-10.27a4.378 4.378 0 013.943 0l17.81 10.25zm-2.874 5.043c.544-.316.986-.062.986.556a2.13 2.13 0 01-.98 1.683c-.537.31-.979.062-.979-.556a2.144 2.144 0 01.973-1.683zm-4.358 2.562c.545-.309.979-.062.979.563a2.104 2.104 0 01-.972 1.683l-7.826 4.5c-.545.31-.98.055-.98-.556a2.13 2.13 0 01.973-1.69l7.826-4.5z" fill="#A65CAB"/></mask><g filter="url(#filter3_f)" mask="url(#d)"><path d="M40.26 36.32c1.097.626 1.104 1.65 0 2.275l-17.679 10.25a4.357 4.357 0 01-3.944 0L.827 38.614c-1.096-.625-1.103-1.648 0-2.273l17.68-10.27a4.378 4.378 0 013.943 0L40.26 36.32z" fill="#431477" fill-opacity=".25"/></g><path d="M41.088 31.164v4.328a.58.58 0 010 .158v-4.328a.58.58 0 000-.158z" fill="#946DB6"/><path d="M41.068 31.322v4.328a.589.589 0 01-.042.158V31.48a.589.589 0 00.042-.158z" fill="#8E72BA"/><path d="M41.026 31.48v4.328a1.649 1.649 0 01-.076.158v-4.328a.999.999 0 00.076-.158z" fill="#8877BD"/><path d="M40.95 31.638v4.328l-.11.165v-4.328c.041-.055.076-.11.11-.165z" fill="#837CC1"/><path d="M40.84 31.803v4.328a2.114 2.114 0 01-.172.185V31.99c.062-.057.12-.12.172-.186z" fill="#7D81C4"/><path d="M40.668 31.989v4.327a2.33 2.33 0 01-.352.261V32.25c.129-.074.249-.162.359-.261" fill="#7786C8"/><path d="M40.31 32.25v4.328h-.035V32.29" fill="#718CCB"/><path d="M.827 32.29v4.329A1.378 1.378 0 010 35.47v-4.348a1.371 1.371 0 00.827 1.168z" fill="#AB58A8"/><path d="M40.282 32.27l-.007 4.328-17.7 10.243.007-4.321 17.7-10.25z" fill="#6399D4"/><path d="M18.638 42.513l-.007 4.328L.82 36.598l.006-4.328 17.81 10.243z" fill="#A65CAB"/><path d="M22.582 42.52v4.32a3.007 3.007 0 01-.607.269v-4.321a4.16 4.16 0 00.607-.268z" fill="#718CCB"/><path d="M21.975 42.788v4.32c-.173.059-.35.102-.531.131v-4.32c.18 0 .358-.083.53-.131z" fill="#7786C8"/><path d="M21.416 42.918v4.321l-.351.055v-4.328l.358-.048" fill="#7D81C4"/><path d="M21.085 42.966v4.328h-.31v-4.328h.303" fill="#837CC1"/><path d="M20.782 42.987v4.328h-.29v-4.328h.29z" fill="#8877BD"/><path d="M20.492 42.987v4.328h-.275v-4.328h.275z" fill="#8E72BA"/><path d="M20.217 42.973v4.328h-.27v-4.362h.27" fill="#946DB6"/><path d="M19.948 42.939v4.328l-.276-.049v-4.327l.276.048z" fill="#9967B2"/><path d="M19.672 42.89v4.329l-.297-.07v-4.327l.297.069z" fill="#9F62AF"/><path d="M19.348 42.822v4.328a3.303 3.303 0 01-.338-.117v-4.328c.11.046.223.085.338.117z" fill="#A55DAB"/><path d="M19.038 42.705v4.328a2.679 2.679 0 01-.4-.192v-4.328c.127.075.261.14.4.192z" fill="#AB58A8"/><path d="M40.262 29.996c1.096.626 1.103 1.65 0 2.274l-17.68 10.25a4.356 4.356 0 01-3.943 0L.829 32.29c-1.097-.624-1.104-1.648 0-2.273l17.679-10.27a4.378 4.378 0 013.944 0l17.81 10.25z" fill="#21D4FD"/><path d="M37.386 35.039c.544-.316.986-.062.986.556a2.131 2.131 0 01-.98 1.683c-.537.31-.979.062-.979-.556a2.144 2.144 0 01.973-1.683zm-4.358 2.562c.545-.31.979-.062.979.563a2.102 2.102 0 01-.972 1.683l-7.826 4.5c-.545.31-.98.055-.98-.556a2.132 2.132 0 01.973-1.69l7.826-4.5z" fill="#A65CAB"/><path d="M41.088 31.122v4.327a.58.58 0 010 .158V31.28a.58.58 0 000-.157z" fill="#946DB6"/><path d="M41.068 31.28v4.327a.589.589 0 01-.042.158v-4.328a.589.589 0 00.042-.158z" fill="#8E72BA"/><path d="M41.026 31.437v4.328a1.637 1.637 0 01-.076.158v-4.328a.999.999 0 00.076-.158z" fill="#8877BD"/><path d="M40.95 31.596v4.327c0 .055-.069.11-.11.165V31.76l.11-.165z" fill="#837CC1"/><path d="M40.84 31.76v4.328a2.129 2.129 0 01-.172.186v-4.328c.062-.057.12-.12.172-.186z" fill="#7D81C4"/><path d="M40.668 31.946v4.328a2.33 2.33 0 01-.352.26v-4.327a2.07 2.07 0 00.359-.261" fill="#7786C8"/><path d="M40.31 32.207v4.328h-.035v-4.287" fill="#718CCB"/><path d="M.827 32.248v4.328A1.379 1.379 0 010 35.429V31.08a1.37 1.37 0 00.827 1.168z" fill="#AB58A8"/><path d="M40.282 32.227l-.007 4.328-17.7 10.243.007-4.321 17.7-10.25z" fill="#6399D4"/><path d="M18.638 42.477l-.007 4.321L.82 36.555l.006-4.328 17.81 10.25z" fill="#A65CAB"/><path d="M22.582 42.477v4.32a3.012 3.012 0 01-.607.269v-4.321c.21-.073.412-.162.607-.268z" fill="#718CCB"/><path d="M21.975 42.745v4.32c-.173.059-.35.102-.531.131v-4.32c.18 0 .358-.083.53-.131z" fill="#7786C8"/><path d="M21.416 42.875v4.321l-.351.055v-4.328l.358-.048" fill="#7D81C4"/><path d="M21.085 42.923v4.328h-.31v-4.328h.303" fill="#837CC1"/><path d="M20.782 42.944v4.328h-.29v-4.328h.29z" fill="#8877BD"/><path d="M20.492 42.944v4.328h-.275v-4.328h.275z" fill="#8E72BA"/><path d="M20.217 42.93v4.328h-.27v-4.362h.27" fill="#946DB6"/><path d="M19.948 42.896v4.328l-.276-.048v-4.328l.276.048z" fill="#9967B2"/><path d="M19.672 42.848v4.328l-.297-.069v-4.328l.297.069z" fill="#9F62AF"/><path d="M19.348 42.78v4.327a3.303 3.303 0 01-.338-.117v-4.328c.11.047.223.086.338.117z" fill="#A55DAB"/><path d="M19.038 42.662v4.328a2.689 2.689 0 01-.4-.192V42.47c.127.075.261.14.4.192z" fill="#AB58A8"/><path d="M40.262 29.954c1.096.625 1.103 1.648 0 2.273l-17.68 10.25a4.356 4.356 0 01-3.943 0L.829 32.248c-1.097-.625-1.104-1.649 0-2.274l17.679-10.27a4.378 4.378 0 013.944 0l17.81 10.25z" fill="#49B0E4"/><path d="M37.386 34.996c.544-.31.986-.062.986.556a2.132 2.132 0 01-.98 1.683c-.537.31-.979.062-.979-.556a2.144 2.144 0 01.973-1.683zm-4.358 2.562c.545-.316.979-.062.979.564a2.102 2.102 0 01-.972 1.683l-7.826 4.5c-.545.308-.98.054-.98-.557a2.118 2.118 0 01.973-1.69l7.826-4.5z" fill="#A65CAB"/><mask id="e" maskUnits="userSpaceOnUse" x="0" y="0" width="42" height="48"><path d="M41.088 31.121v4.328a.58.58 0 010 .158V31.28a.58.58 0 000-.158zm-.02.159v4.327a.592.592 0 01-.042.158v-4.328a.592.592 0 00.042-.158z" fill="#A65CAB"/><path d="M41.026 31.437v4.328a1.649 1.649 0 01-.076.158v-4.328a.999.999 0 00.076-.158zm-.076.158v4.328c0 .055-.069.11-.11.165V31.76l.11-.165zm-.11.165v4.328a2.129 2.129 0 01-.172.186v-4.328c.062-.057.12-.12.172-.186z" fill="#A65CAB"/><path d="M40.668 31.946v4.328a2.33 2.33 0 01-.352.26v-4.327c.129-.074.249-.162.359-.261m-.365.261v4.328h-.035v-4.287m-39.448 0v4.328A1.379 1.379 0 010 35.429V31.08a1.37 1.37 0 00.827 1.168z" fill="#A65CAB"/><path d="M40.282 32.227l-.007 4.328-17.7 10.243.007-4.321 17.7-10.25zm-21.644 10.25l-.007 4.32L.82 36.556l.006-4.328 17.81 10.25z" fill="#A65CAB"/><path d="M22.582 42.477v4.32a3.007 3.007 0 01-.607.269v-4.321c.21-.073.412-.162.607-.268zm-.607.268v4.32a3.33 3.33 0 01-.531.131v-4.32c.18 0 .358-.083.53-.131zm-.559.13v4.321l-.351.055v-4.328l.358-.048" fill="#A65CAB"/><path d="M21.085 42.923v4.328h-.31v-4.328h.303" fill="#A65CAB"/><path d="M20.782 42.944v4.328h-.29v-4.328h.29z" fill="#A65CAB"/><path d="M20.492 42.944v4.328h-.275v-4.328h.276zm-.275-.014v4.328h-.27v-4.362h.27" fill="#A65CAB"/><path d="M19.948 42.896v4.328l-.276-.048v-4.328l.276.048zm-.276-.048v4.328l-.297-.069v-4.328l.297.069zm-.324-.068v4.327a3.278 3.278 0 01-.338-.117v-4.328c.11.047.223.086.338.117z" fill="#A65CAB"/><path d="M19.038 42.662v4.328a2.68 2.68 0 01-.4-.192V42.47c.127.075.261.14.4.192z" fill="#A65CAB"/><path d="M40.26 29.954c1.097.625 1.104 1.648 0 2.273l-17.678 10.25a4.358 4.358 0 01-3.944 0L.828 32.248c-1.097-.625-1.104-1.649-.001-2.274l17.68-10.27a4.378 4.378 0 013.943 0l17.81 10.25zm-2.874 5.042c.544-.31.986-.062.986.556a2.13 2.13 0 01-.98 1.683c-.537.31-.979.062-.979-.556a2.144 2.144 0 01.973-1.683zm-4.358 2.562c.545-.316.979-.062.979.564a2.104 2.104 0 01-.972 1.683l-7.826 4.5c-.545.308-.98.054-.98-.557a2.116 2.116 0 01.973-1.69l7.826-4.5zm8.06-16.054v4.328a.58.58 0 010 .158v-4.328a.58.58 0 000-.158zm-.02.158v4.328a.592.592 0 01-.042.158V21.82a.593.593 0 00.042-.158z" fill="#A65CAB"/><path d="M41.026 21.82v4.328a1.649 1.649 0 01-.076.158v-4.328c.03-.05.055-.104.076-.158zm-.076.158v4.328c0 .055-.069.11-.11.165v-4.328c.041-.055.076-.11.11-.165zm-.11.165v4.328a2.129 2.129 0 01-.172.185v-4.328c.062-.056.12-.119.172-.185z" fill="#A65CAB"/><path d="M40.668 22.328v4.328a2.33 2.33 0 01-.352.261V22.59c.129-.074.249-.161.359-.26m-.365.26v4.327h-.035v-4.286M.827 22.63v4.328A1.378 1.378 0 010 25.811v-4.348a1.37 1.37 0 00.827 1.168z" fill="#A65CAB"/><path d="M40.282 22.61l-.007 4.328-17.7 10.242.007-4.32 17.7-10.25zM18.638 32.86l-.007 4.32L.82 26.938l.006-4.328 17.81 10.25z" fill="#A65CAB"/><path d="M22.582 32.86v4.32a3.012 3.012 0 01-.607.268v-4.32a4.06 4.06 0 00.607-.269zm-.607.267v4.321a3.33 3.33 0 01-.531.13v-4.32c.18 0 .358-.083.53-.13zm-.559.131v4.32l-.351.056v-4.328l.358-.048" fill="#A65CAB"/><path d="M21.085 33.306v4.328h-.31v-4.328h.303" fill="#A65CAB"/><path d="M20.782 33.327v4.327h-.29v-4.327h.29z" fill="#A65CAB"/><path d="M20.492 33.327v4.327h-.275v-4.327h.276zm-.275-.014v4.328h-.27v-4.362h.27" fill="#A65CAB"/><path d="M19.948 33.279v4.327l-.276-.048V33.23l.276.049zm-.276-.049v4.328l-.297-.068v-4.328l.297.068zm-.324-.068v4.328a3.303 3.303 0 01-.338-.117v-4.328c.11.046.223.085.338.117z" fill="#A65CAB"/><path d="M19.038 33.045v4.328a2.68 2.68 0 01-.4-.193v-4.327c.127.075.261.139.4.192z" fill="#A65CAB"/><path d="M40.26 20.336c1.097.625 1.104 1.649 0 2.274L22.582 32.86a4.358 4.358 0 01-3.944 0L.828 22.63c-1.097-.625-1.104-1.648-.001-2.273l17.68-10.27a4.378 4.378 0 013.943 0l17.81 10.25zm-2.874 5.042c.544-.309.986-.061.986.557a2.13 2.13 0 01-.98 1.683c-.537.309-.979.062-.979-.556a2.144 2.144 0 01.973-1.684zm-3.441 2.062c.538-.31.979-.063.979.556a2.144 2.144 0 01-.972 1.683c-.545.309-.98.055-.986-.557a2.131 2.131 0 01.979-1.683zM30.49 29.5c.545-.309.98-.062.986.557a2.144 2.144 0 01-.979 1.683c-.538.309-.979.062-.979-.557a2.13 2.13 0 01.972-1.683zm-3.44 2.061c.538-.309.979-.062.979.556a2.145 2.145 0 01-.972 1.684c-.545.309-.986.061-.986-.557a2.132 2.132 0 01.979-1.683zm14.038-19.675v4.328a.58.58 0 010 .158v-4.328a.58.58 0 000-.158zm-.02.158v4.328a.591.591 0 01-.042.158v-4.328a.592.592 0 00.042-.158z" fill="#A65CAB"/><path d="M41.026 12.203v4.327a1.649 1.649 0 01-.076.158v-4.327c.03-.051.055-.104.076-.159zm-.076.157v4.328l-.11.165v-4.328c.041-.055.076-.11.11-.165zm-.11.165v4.328a2.129 2.129 0 01-.172.186V12.71c.062-.057.12-.12.172-.186z" fill="#A65CAB"/><path d="M40.668 12.71v4.329a2.33 2.33 0 01-.352.26v-4.327c.129-.074.249-.162.359-.261m-.365.261V17.3h-.035v-4.287m-39.448 0v4.328A1.378 1.378 0 010 16.194v-4.349a1.37 1.37 0 00.827 1.168z" fill="#A65CAB"/><path d="M40.282 12.992l-.007 4.328-17.7 10.243.007-4.321 17.7-10.25zM18.638 23.235l-.007 4.328L.82 17.32l.006-4.328 17.81 10.243z" fill="#A65CAB"/><path d="M22.582 23.242v4.321a3.012 3.012 0 01-.607.268V23.51c.21-.073.412-.162.607-.268zm-.607.268v4.32a3.33 3.33 0 01-.531.131v-4.32c.18 0 .358-.083.53-.131zm-.559.13v4.321l-.351.055V23.69l.358-.049" fill="#A65CAB"/><path d="M21.085 23.689v4.327h-.31V23.69h.303" fill="#A65CAB"/><path d="M20.782 23.71v4.327h-.29v-4.328h.29z" fill="#A65CAB"/><path d="M20.492 23.71v4.327h-.275v-4.328h.276zm-.275-.015v4.328h-.27v-4.362h.27" fill="#A65CAB"/><path d="M19.948 23.661v4.328l-.276-.048v-4.328l.276.048zm-.276-.048v4.328l-.297-.069v-4.328l.297.069zm-.324-.069v4.328a3.303 3.303 0 01-.338-.117v-4.328c.11.047.223.086.338.117z" fill="#A65CAB"/><path d="M19.038 23.427v4.328a2.689 2.689 0 01-.4-.192v-4.328c.127.075.261.14.4.192z" fill="#A65CAB"/><path d="M40.26 10.719c1.097.625 1.104 1.648 0 2.274L22.582 23.242a4.36 4.36 0 01-3.945 0L.827 13.013c-1.096-.625-1.103-1.649 0-2.274L18.507.47a4.378 4.378 0 013.943 0l17.81 10.25zm-2.874 5.041c.544-.315.986-.06.986.557a2.13 2.13 0 01-.98 1.683c-.537.31-.979.062-.979-.556a2.144 2.144 0 01.973-1.683zm-4.358 2.563c.545-.309.979-.061.979.564a2.104 2.104 0 01-.972 1.683l-7.826 4.5c-.545.308-.98.054-.98-.557a2.13 2.13 0 01.973-1.69l7.826-4.5z" fill="#A65CAB"/></mask><g filter="url(#filter4_f)" mask="url(#e)"><path d="M40.26 27.433c1.097.626 1.104 1.65 0 2.274l-17.679 10.25a4.357 4.357 0 01-3.944 0L.827 29.727c-1.096-.624-1.103-1.648 0-2.273l17.68-10.27a4.378 4.378 0 013.943 0l17.81 10.25z" fill="#431477" fill-opacity=".25"/></g><path d="M41.088 21.504v4.328a.58.58 0 010 .158v-4.328a.58.58 0 000-.158z" fill="#946DB6"/><path d="M41.068 21.662v4.328a.589.589 0 01-.042.158V21.82a.589.589 0 00.042-.158z" fill="#8E72BA"/><path d="M41.026 21.82v4.328a1.66 1.66 0 01-.076.158v-4.328c.03-.05.055-.104.076-.158z" fill="#8877BD"/><path d="M40.95 21.978v4.328c0 .055-.069.11-.11.165v-4.328c.041-.055.076-.11.11-.165z" fill="#837CC1"/><path d="M40.84 22.143v4.328a2.129 2.129 0 01-.172.185v-4.328c.062-.056.12-.119.172-.185z" fill="#7D81C4"/><path d="M40.668 22.328v4.328a2.337 2.337 0 01-.352.261V22.59a2.07 2.07 0 00.359-.26" fill="#7786C8"/><path d="M40.31 22.59v4.327h-.035v-4.286" fill="#718CCB"/><path d="M.827 22.63v4.328A1.379 1.379 0 010 25.811v-4.348a1.37 1.37 0 00.827 1.168z" fill="#AB58A8"/><path d="M40.282 22.61l-.007 4.328-17.7 10.243.007-4.322 17.7-10.249z" fill="#6399D4"/><path d="M18.638 32.86l-.007 4.32L.82 26.939l.006-4.328 17.81 10.25z" fill="#A65CAB"/><path d="M22.582 32.86v4.32a3.007 3.007 0 01-.607.268v-4.32a4.06 4.06 0 00.607-.269z" fill="#718CCB"/><path d="M21.975 33.127v4.321c-.173.058-.35.102-.531.13v-4.32c.18 0 .358-.083.53-.13z" fill="#7786C8"/><path d="M21.416 33.258v4.32l-.351.056v-4.328l.358-.048" fill="#7D81C4"/><path d="M21.085 33.306v4.328h-.31v-4.328h.303" fill="#837CC1"/><path d="M20.782 33.327v4.327h-.29v-4.328h.29z" fill="#8877BD"/><path d="M20.492 33.327v4.327h-.275v-4.328h.275z" fill="#8E72BA"/><path d="M20.217 33.313v4.328h-.27v-4.362h.27" fill="#946DB6"/><path d="M19.948 33.279v4.327l-.276-.048V33.23l.276.049z" fill="#9967B2"/><path d="M19.672 33.23v4.328l-.297-.069v-4.327l.297.068z" fill="#9F62AF"/><path d="M19.348 33.162v4.328a3.303 3.303 0 01-.338-.117v-4.328c.11.046.223.085.338.117z" fill="#A55DAB"/><path d="M19.038 33.045v4.328a2.68 2.68 0 01-.4-.193v-4.328c.127.076.261.14.4.193z" fill="#AB58A8"/><path d="M40.262 20.336c1.096.625 1.103 1.649 0 2.274l-17.68 10.25a4.358 4.358 0 01-3.943 0L.829 22.63c-1.097-.625-1.104-1.648 0-2.273l17.679-10.27a4.377 4.377 0 013.944 0l17.81 10.25z" fill="#49B0E4"/><path d="M37.386 25.378c.544-.309.986-.061.986.557a2.132 2.132 0 01-.98 1.683c-.537.309-.979.062-.979-.557a2.144 2.144 0 01.973-1.683zm-3.441 2.062c.538-.31.979-.063.979.556a2.144 2.144 0 01-.972 1.683c-.545.309-.98.055-.986-.557a2.13 2.13 0 01.979-1.683zM30.49 29.5c.545-.309.98-.062.986.557a2.144 2.144 0 01-.979 1.683c-.538.309-.979.062-.979-.557a2.131 2.131 0 01.972-1.683zm-3.44 2.061c.538-.31.979-.062.979.556a2.145 2.145 0 01-.972 1.684c-.545.309-.986.061-.986-.557a2.132 2.132 0 01.979-1.683z" fill="#A65CAB"/><mask id="f" maskUnits="userSpaceOnUse" x="0" y="0" width="42" height="48"><path d="M41.088 31.121v4.328a.58.58 0 010 .158V31.28a.58.58 0 000-.158zm-.02.159v4.327a.592.592 0 01-.042.158v-4.328a.592.592 0 00.042-.158z" fill="#A65CAB"/><path d="M41.026 31.437v4.328a1.649 1.649 0 01-.076.158v-4.328a.999.999 0 00.076-.158zm-.076.158v4.328c0 .055-.069.11-.11.165V31.76l.11-.165zm-.11.165v4.328a2.129 2.129 0 01-.172.186v-4.328c.062-.057.12-.12.172-.186z" fill="#A65CAB"/><path d="M40.668 31.946v4.328a2.33 2.33 0 01-.352.26v-4.327c.129-.074.249-.162.359-.261m-.365.261v4.328h-.035v-4.287m-39.448 0v4.328A1.379 1.379 0 010 35.429V31.08a1.37 1.37 0 00.827 1.168z" fill="#A65CAB"/><path d="M40.282 32.227l-.007 4.328-17.7 10.243.007-4.321 17.7-10.25zm-21.644 10.25l-.007 4.32L.82 36.556l.006-4.328 17.81 10.25z" fill="#A65CAB"/><path d="M22.582 42.477v4.32a3.007 3.007 0 01-.607.269v-4.321c.21-.073.412-.162.607-.268zm-.607.268v4.32a3.33 3.33 0 01-.531.131v-4.32c.18 0 .358-.083.53-.131zm-.559.13v4.321l-.351.055v-4.328l.358-.048" fill="#A65CAB"/><path d="M21.085 42.923v4.328h-.31v-4.328h.303" fill="#A65CAB"/><path d="M20.782 42.944v4.328h-.29v-4.328h.29z" fill="#A65CAB"/><path d="M20.492 42.944v4.328h-.275v-4.328h.276zm-.275-.014v4.328h-.27v-4.362h.27" fill="#A65CAB"/><path d="M19.948 42.896v4.328l-.276-.048v-4.328l.276.048zm-.276-.048v4.328l-.297-.069v-4.328l.297.069zm-.324-.068v4.327a3.278 3.278 0 01-.338-.117v-4.328c.11.047.223.086.338.117z" fill="#A65CAB"/><path d="M19.038 42.662v4.328a2.68 2.68 0 01-.4-.192V42.47c.127.075.261.14.4.192z" fill="#A65CAB"/><path d="M40.26 29.954c1.097.625 1.104 1.648 0 2.273l-17.678 10.25a4.358 4.358 0 01-3.944 0L.828 32.248c-1.097-.625-1.104-1.649-.001-2.274l17.68-10.27a4.378 4.378 0 013.943 0l17.81 10.25zm-2.874 5.042c.544-.31.986-.062.986.556a2.13 2.13 0 01-.98 1.683c-.537.31-.979.062-.979-.556a2.144 2.144 0 01.973-1.683zm-4.358 2.562c.545-.316.979-.062.979.564a2.104 2.104 0 01-.972 1.683l-7.826 4.5c-.545.308-.98.054-.98-.557a2.116 2.116 0 01.973-1.69l7.826-4.5zm8.06-16.054v4.328a.58.58 0 010 .158v-4.328a.58.58 0 000-.158zm-.02.158v4.328a.592.592 0 01-.042.158V21.82a.593.593 0 00.042-.158z" fill="#A65CAB"/><path d="M41.026 21.82v4.328a1.649 1.649 0 01-.076.158v-4.328c.03-.05.055-.104.076-.158zm-.076.158v4.328c0 .055-.069.11-.11.165v-4.328c.041-.055.076-.11.11-.165zm-.11.165v4.328a2.129 2.129 0 01-.172.185v-4.328c.062-.056.12-.119.172-.185z" fill="#A65CAB"/><path d="M40.668 22.328v4.328a2.33 2.33 0 01-.352.261V22.59c.129-.074.249-.161.359-.26m-.365.26v4.327h-.035v-4.286M.827 22.63v4.328A1.378 1.378 0 010 25.811v-4.348a1.37 1.37 0 00.827 1.168z" fill="#A65CAB"/><path d="M40.282 22.61l-.007 4.328-17.7 10.242.007-4.32 17.7-10.25zM18.638 32.86l-.007 4.32L.82 26.938l.006-4.328 17.81 10.25z" fill="#A65CAB"/><path d="M22.582 32.86v4.32a3.012 3.012 0 01-.607.268v-4.32a4.06 4.06 0 00.607-.269zm-.607.267v4.321a3.33 3.33 0 01-.531.13v-4.32c.18 0 .358-.083.53-.13zm-.559.131v4.32l-.351.056v-4.328l.358-.048" fill="#A65CAB"/><path d="M21.085 33.306v4.328h-.31v-4.328h.303" fill="#A65CAB"/><path d="M20.782 33.327v4.327h-.29v-4.327h.29z" fill="#A65CAB"/><path d="M20.492 33.327v4.327h-.275v-4.327h.276zm-.275-.014v4.328h-.27v-4.362h.27" fill="#A65CAB"/><path d="M19.948 33.279v4.327l-.276-.048V33.23l.276.049zm-.276-.049v4.328l-.297-.068v-4.328l.297.068zm-.324-.068v4.328a3.303 3.303 0 01-.338-.117v-4.328c.11.046.223.085.338.117z" fill="#A65CAB"/><path d="M19.038 33.045v4.328a2.68 2.68 0 01-.4-.193v-4.327c.127.075.261.139.4.192z" fill="#A65CAB"/><path d="M40.26 20.336c1.097.625 1.104 1.649 0 2.274L22.582 32.86a4.358 4.358 0 01-3.944 0L.828 22.63c-1.097-.625-1.104-1.648-.001-2.273l17.68-10.27a4.378 4.378 0 013.943 0l17.81 10.25zm-2.874 5.042c.544-.309.986-.061.986.557a2.13 2.13 0 01-.98 1.683c-.537.309-.979.062-.979-.556a2.144 2.144 0 01.973-1.684zm-3.441 2.062c.538-.31.979-.063.979.556a2.144 2.144 0 01-.972 1.683c-.545.309-.98.055-.986-.557a2.131 2.131 0 01.979-1.683zM30.49 29.5c.545-.309.98-.062.986.557a2.144 2.144 0 01-.979 1.683c-.538.309-.979.062-.979-.557a2.13 2.13 0 01.972-1.683zm-3.44 2.061c.538-.309.979-.062.979.556a2.145 2.145 0 01-.972 1.684c-.545.309-.986.061-.986-.557a2.132 2.132 0 01.979-1.683zm14.038-19.675v4.328a.58.58 0 010 .158v-4.328a.58.58 0 000-.158zm-.02.158v4.328a.591.591 0 01-.042.158v-4.328a.592.592 0 00.042-.158z" fill="#A65CAB"/><path d="M41.026 12.203v4.327a1.649 1.649 0 01-.076.158v-4.327c.03-.051.055-.104.076-.159zm-.076.157v4.328l-.11.165v-4.328c.041-.055.076-.11.11-.165zm-.11.165v4.328a2.129 2.129 0 01-.172.186V12.71c.062-.057.12-.12.172-.186z" fill="#A65CAB"/><path d="M40.668 12.71v4.329a2.33 2.33 0 01-.352.26v-4.327c.129-.074.249-.162.359-.261m-.365.261V17.3h-.035v-4.287m-39.448 0v4.328A1.378 1.378 0 010 16.194v-4.349a1.37 1.37 0 00.827 1.168z" fill="#A65CAB"/><path d="M40.282 12.992l-.007 4.328-17.7 10.243.007-4.321 17.7-10.25zM18.638 23.235l-.007 4.328L.82 17.32l.006-4.328 17.81 10.243z" fill="#A65CAB"/><path d="M22.582 23.242v4.321a3.012 3.012 0 01-.607.268V23.51c.21-.073.412-.162.607-.268zm-.607.268v4.32a3.33 3.33 0 01-.531.131v-4.32c.18 0 .358-.083.53-.131zm-.559.13v4.321l-.351.055V23.69l.358-.049" fill="#A65CAB"/><path d="M21.085 23.689v4.327h-.31V23.69h.303" fill="#A65CAB"/><path d="M20.782 23.71v4.327h-.29v-4.328h.29z" fill="#A65CAB"/><path d="M20.492 23.71v4.327h-.275v-4.328h.276zm-.275-.015v4.328h-.27v-4.362h.27" fill="#A65CAB"/><path d="M19.948 23.661v4.328l-.276-.048v-4.328l.276.048zm-.276-.048v4.328l-.297-.069v-4.328l.297.069zm-.324-.069v4.328a3.303 3.303 0 01-.338-.117v-4.328c.11.047.223.086.338.117z" fill="#A65CAB"/><path d="M19.038 23.427v4.328a2.689 2.689 0 01-.4-.192v-4.328c.127.075.261.14.4.192z" fill="#A65CAB"/><path d="M40.26 10.719c1.097.625 1.104 1.648 0 2.274L22.582 23.242a4.36 4.36 0 01-3.945 0L.827 13.013c-1.096-.625-1.103-1.649 0-2.274L18.507.47a4.378 4.378 0 013.943 0l17.81 10.25zm-2.874 5.041c.544-.315.986-.06.986.557a2.13 2.13 0 01-.98 1.683c-.537.31-.979.062-.979-.556a2.144 2.144 0 01.973-1.683zm-4.358 2.563c.545-.309.979-.061.979.564a2.104 2.104 0 01-.972 1.683l-7.826 4.5c-.545.308-.98.054-.98-.557a2.13 2.13 0 01.973-1.69l7.826-4.5z" fill="#A65CAB"/></mask><g filter="url(#filter5_f)" mask="url(#f)"><path d="M40.26 17.043c1.097.625 1.104 1.649 0 2.274l-17.679 10.25a4.357 4.357 0 01-3.944 0L.827 19.337c-1.096-.625-1.103-1.648 0-2.273l17.68-10.27a4.378 4.378 0 013.943 0l17.81 10.25z" fill="#431477" fill-opacity=".25"/></g><path d="M41.088 11.886v4.328a.58.58 0 010 .158v-4.328a.58.58 0 000-.158z" fill="#946DB6"/><path d="M41.068 12.044v4.328a.589.589 0 01-.042.158v-4.328a.588.588 0 00.042-.158z" fill="#8E72BA"/><path d="M41.026 12.203v4.327a1.649 1.649 0 01-.076.158v-4.327c.03-.051.055-.104.076-.159z" fill="#8877BD"/><path d="M40.95 12.36v4.328l-.11.165v-4.328c.041-.055.076-.11.11-.165z" fill="#837CC1"/><path d="M40.84 12.525v4.328a2.128 2.128 0 01-.172.186V12.71a1.49 1.49 0 00.172-.186z" fill="#7D81C4"/><path d="M40.668 12.71v4.329a2.33 2.33 0 01-.352.26v-4.327a2.07 2.07 0 00.359-.261" fill="#7786C8"/><path d="M40.31 12.972V17.3h-.035v-4.287" fill="#718CCB"/><path d="M.827 13.013v4.328A1.378 1.378 0 010 16.194v-4.349a1.37 1.37 0 00.827 1.168z" fill="#AB58A8"/><path d="M40.282 12.992l-.007 4.328-17.7 10.243.007-4.321 17.7-10.25z" fill="#6399D4"/><path d="M18.638 23.235l-.007 4.328L.82 17.32l.006-4.328 17.81 10.243z" fill="#A65CAB"/><path d="M22.582 23.242v4.32a3.012 3.012 0 01-.607.269V23.51c.21-.073.412-.162.607-.268z" fill="#718CCB"/><path d="M21.975 23.51v4.32a3.12 3.12 0 01-.531.131v-4.32c.18 0 .358-.083.53-.131z" fill="#7786C8"/><path d="M21.416 23.64v4.321l-.351.055V23.69l.358-.049" fill="#7D81C4"/><path d="M21.085 23.689v4.327h-.31V23.69h.303" fill="#837CC1"/><path d="M20.782 23.71v4.327h-.29v-4.328h.29z" fill="#8877BD"/><path d="M20.492 23.71v4.327h-.275v-4.328h.275z" fill="#8E72BA"/><path d="M20.217 23.695v4.328h-.27v-4.362h.27" fill="#946DB6"/><path d="M19.948 23.661v4.328l-.276-.048v-4.328l.276.048z" fill="#9967B2"/><path d="M19.672 23.613v4.328l-.297-.069v-4.328l.297.069z" fill="#9F62AF"/><path d="M19.348 23.544v4.328a3.303 3.303 0 01-.338-.117v-4.328c.11.047.223.086.338.117z" fill="#A55DAB"/><path d="M19.038 23.427v4.328a2.679 2.679 0 01-.4-.192v-4.328c.127.075.261.14.4.192z" fill="#AB58A8"/><path d="M40.262 10.719c1.096.625 1.103 1.648 0 2.274l-17.68 10.249a4.357 4.357 0 01-3.943 0L.829 13.013c-1.097-.625-1.104-1.649 0-2.274L18.507.47a4.378 4.378 0 013.944 0l17.81 10.25z" fill="#21D4FD"/><path d="M37.386 15.76c.544-.315.986-.06.986.557a2.132 2.132 0 01-.98 1.683c-.537.31-.979.062-.979-.556a2.143 2.143 0 01.973-1.683zm-4.358 2.563c.545-.309.979-.061.979.564a2.102 2.102 0 01-.972 1.683l-7.826 4.5c-.545.308-.98.054-.98-.557a2.133 2.133 0 01.973-1.69l7.826-4.5z" fill="#A65CAB"/><defs><filter id="filter0_f" x="41.661" y="13.928" width="53.083" height="35.714" filterUnits="userSpaceOnUse" color-interpolation-filters="sRGB"><feFlood flood-opacity="0" result="BackgroundImageFix"/><feBlend in="SourceGraphic" in2="BackgroundImageFix" result="shape"/><feGaussianBlur stdDeviation="3" result="effect1_foregroundBlur"/></filter><filter id="filter1_f" x="41.661" y="3.537" width="53.083" height="35.714" filterUnits="userSpaceOnUse" color-interpolation-filters="sRGB"><feFlood flood-opacity="0" result="BackgroundImageFix"/><feBlend in="SourceGraphic" in2="BackgroundImageFix" result="shape"/><feGaussianBlur stdDeviation="3" result="effect1_foregroundBlur"/></filter><filter id="filter2_f" x="-5.998" y="29.993" width="53.083" height="35.714" filterUnits="userSpaceOnUse" color-interpolation-filters="sRGB"><feFlood flood-opacity="0" result="BackgroundImageFix"/><feBlend in="SourceGraphic" in2="BackgroundImageFix" result="shape"/><feGaussianBlur stdDeviation="3" result="effect1_foregroundBlur"/></filter><filter id="filter3_f" x="-5.998" y="19.602" width="53.083" height="35.714" filterUnits="userSpaceOnUse" color-interpolation-filters="sRGB"><feFlood flood-opacity="0" result="BackgroundImageFix"/><feBlend in="SourceGraphic" in2="BackgroundImageFix" result="shape"/><feGaussianBlur stdDeviation="3" result="effect1_foregroundBlur"/></filter><filter id="filter4_f" x="-5.998" y="10.715" width="53.083" height="35.714" filterUnits="userSpaceOnUse" color-interpolation-filters="sRGB"><feFlood flood-opacity="0" result="BackgroundImageFix"/><feBlend in="SourceGraphic" in2="BackgroundImageFix" result="shape"/><feGaussianBlur stdDeviation="3" result="effect1_foregroundBlur"/></filter><filter id="filter5_f" x="-5.998" y=".325" width="53.083" height="35.714" filterUnits="userSpaceOnUse" color-interpolation-filters="sRGB"><feFlood flood-opacity="0" result="BackgroundImageFix"/><feBlend in="SourceGraphic" in2="BackgroundImageFix" result="shape"/><feGaussianBlur stdDeviation="3" result="effect1_foregroundBlur"/></filter></defs></svg>