<svg width="110" height="86" viewBox="0 0 110 86" fill="none" xmlns="http://www.w3.org/2000/svg"><path d="M102.643 8.348L98.537 5.95l.128-.056 4.106 2.397-.128.056z" fill="#5D9ED8"/><path d="M102.771 8.292l-4.106-2.397c.184-.08.368-.143.551-.207l4.106 2.396a7.732 7.732 0 00-.551.208z" fill="#609BD6"/><path d="M103.322 8.084l-4.106-2.397.44-.135 4.106 2.396-.44.136z" fill="#6399D4"/><path d="M103.762 7.948l-4.106-2.396.391-.088 4.098 2.396-.383.096" fill="#6696D2"/><path d="M104.145 7.852l-4.098-2.396.352-.064 4.106 2.396-.36.064z" fill="#6993D1"/><path d="M104.497 7.788l-4.106-2.396.327-.048 4.106 2.396-.327.04" fill="#6C91CF"/><path d="M104.832 7.748l-4.106-2.396h.304l4.105 2.396h-.303z" fill="#6E8ECD"/><path d="M105.135 7.724l-4.105-2.396h.271l4.106 2.396h-.272z" fill="#718CCB"/><path d="M105.415 7.724l-4.106-2.396h.272l4.106 2.396h-.272z" fill="#7489CA"/><path d="M105.687 7.732l-4.106-2.396h.263l4.106 2.396h-.263z" fill="#7786C8"/><path d="M105.95 7.756l-4.106-2.396.248.04 4.106 2.396h-.248" fill="#7A84C6"/><path d="M106.198 7.788l-4.106-2.396.24.048 4.105 2.396-.239-.048z" fill="#7D81C4"/><path d="M106.438 7.836l-4.106-2.396.231.056 4.106 2.396-.231-.064" fill="#807FC2"/><path d="M106.669 7.9l-4.106-2.396.224.072 4.106 2.396-.224-.072z" fill="#837CC1"/><path d="M106.893 7.972l-4.106-2.396.216.087 4.106 2.397-.216-.088z" fill="#857ABF"/><path d="M107.109 8.06l-4.106-2.396.215.095 4.106 2.397a1.297 1.297 0 00-.215-.096z" fill="#8877BD"/><path d="M107.324 8.18l-4.106-2.397.208.112 4.106 2.397-.208-.112z" fill="#8B74BB"/><path d="M107.532 8.26l-4.106-2.397h.048l4.106 2.397h-.048z" fill="#8E72BA"/><path d="M95.03 5.783l-4.113-2.396a9.34 9.34 0 011.397-.982c.096-.064.2-.12.304-.176l4.106 2.396-.312.168a9.5 9.5 0 00-1.382.99z" fill="#5AA0DA"/><path d="M96.732 4.633l-4.106-2.396.56-.264L97.29 4.37l-.559.263z" fill="#5D9ED8"/><path d="M97.307 4.37L93.2 1.972c.136-.048.264-.104.4-.144l4.105 2.397-.4.151" fill="#609BD6"/><path d="M97.69 4.186l-4.105-2.397.335-.103 4.098 2.396-.328.096" fill="#6399D4"/><path d="M98.018 4.122L93.92 1.725l.288-.071 4.106 2.396-.296.072z" fill="#6696D2"/><path d="M98.314 4.05l-4.106-2.396.255-.048 4.106 2.396-.255.048z" fill="#6993D1"/><path d="M98.57 4.002l-4.107-2.396h.24l4.106 2.396h-.24z" fill="#6C91CF"/><path d="M98.809 3.97l-4.106-2.396h.224l4.105 2.396h-.223z" fill="#6E8ECD"/><path d="M99.032 3.954l-4.105-2.396h.207l4.106 2.396h-.207z" fill="#718CCB"/><path d="M99.24 3.954l-4.106-2.396h.2l4.106 2.396h-.2z" fill="#7489CA"/><path d="M99.44 3.962l-4.106-2.396h.192l4.106 2.396h-.192z" fill="#7786C8"/><path d="M99.632 3.978l-4.106-2.396h.184l4.106 2.396h-.184z" fill="#7A84C6"/><path d="M99.815 4.002L95.71 1.606h.175l4.106 2.396-.176-.04" fill="#7D81C4"/><path d="M99.991 4.042l-4.106-2.396c.057.012.113.028.168.047l4.106 2.397-.168-.04" fill="#807FC2"/><path d="M100.159 4.082l-4.106-2.396.168.047 4.105 2.397-.167-.056" fill="#837CC1"/><path d="M100.327 4.138L96.221 1.74l.16.064 4.121 2.38-.159-.063" fill="#857ABF"/><path d="M100.502 4.186l-4.106-2.397.16.072 4.106 2.397a.568.568 0 00-.16-.072z" fill="#8877BD"/><path d="M100.646 4.274L96.54 1.877l.152.08 4.106 2.397-.152-.08z" fill="#8B74BB"/><path d="M100.798 4.354l-4.106-2.397h.04l4.098 2.397" fill="#8E72BA"/><path d="M83.8 4.098l-4.067-2.389.671-.359 4.098 2.396-.663.368" fill="#5AA0DA"/><path d="M84.462 3.73l-4.098-2.396c.36-.192.72-.36 1.079-.511l4.106 2.396c-.36.152-.72.32-1.087.503" fill="#5D9ED8"/><path d="M85.549 3.227L81.443.831c.272-.112.535-.208.799-.296l4.106 2.397c-.256.088-.528.183-.8.295z" fill="#609BD6"/><path d="M86.34 2.932L82.232.535c.224-.072.448-.144.663-.2l4.106 2.397c-.223.056-.44.12-.663.2z" fill="#6399D4"/><path d="M87.002 2.732L82.897.335c.191-.055.383-.095.575-.135l4.106 2.396c-.192.043-.384.09-.576.144" fill="#6696D2"/><path d="M87.578 2.588L83.472.192c.175 0 .343-.072.519-.096l4.106 2.396-.52.096z" fill="#6993D1"/><path d="M88.097 2.492L83.99.096l.471-.064 4.106 2.396-.471.056" fill="#6C91CF"/><path d="M88.568 2.436L84.462.04h.447l4.106 2.396h-.447z" fill="#6E8ECD"/><path d="M89.016 2.404L84.91.008h.415l4.098 2.396h-.415" fill="#718CCB"/><path d="M89.43 2.396L85.334 0h.391l4.106 2.396h-.4z" fill="#7489CA"/><path d="M89.83 2.412L85.724.016h.384l4.106 2.396h-.384z" fill="#7786C8"/><path d="M90.214 2.444L86.108.048l.367.056L90.581 2.5l-.367-.056z" fill="#7A84C6"/><path d="M90.581 2.5L86.475.104l.352.072 4.09 2.412a2.738 2.738 0 00-.352-.072" fill="#7D81C4"/><path d="M90.917 2.588L86.81.192l.343.088 4.106 2.396-.343-.088z" fill="#807FC2"/><path d="M91.276 2.66L87.171.264l.327.103 4.106 2.397-.328-.104z" fill="#837CC1"/><path d="M91.604 2.764L87.498.367l.327.128 4.098 2.397-.32-.128z" fill="#857ABF"/><path d="M91.923 2.892L87.825.495l.312.144 4.106 2.396-.32-.135" fill="#8877BD"/><path d="M92.243 3.027L88.137.631l.303.16 4.106 2.396-.303-.168" fill="#8B74BB"/><path d="M92.514 3.195L88.408.8l.072.04 4.106 2.396h-.072" fill="#8E72BA"/><path d="M67.08 45.085l-4.122-2.389c-1.486-.862-2.396-2.7-2.396-5.304v-.799l4.106 2.397v.799c0 2.604.926 4.441 2.396 5.304" fill="#AE55A6"/><path d="M64.692 38.958l-4.13-2.389c0-.255.048-.519.08-.798l4.106 2.396c0 .264-.064.527-.08.799" fill="#AB58A8"/><path d="M64.772 38.175l-4.106-2.396c0-.208.056-.416.096-.631l4.105 2.396c0 .208-.072.423-.096.631z" fill="#A85BAA"/><path d="M64.868 37.544l-4.106-2.396c0-.176.063-.352.103-.536l4.106 2.397c0 .176-.072.36-.103.535z" fill="#A55DAB"/><path d="M64.971 37.009l-4.106-2.397c0-.16.072-.32.112-.487l4.106 2.397c0 .16-.08.32-.112.487z" fill="#A260AD"/><path d="M65.083 36.522l-4.106-2.397.12-.455 4.106 2.396-.12.463" fill="#9F62AF"/><path d="M65.203 36.058l-4.106-2.396c0-.144.08-.288.128-.432l4.106 2.397c-.048.144-.088.28-.128.423" fill="#9C65B1"/><path d="M65.355 35.635l-4.106-2.397c.04-.135.08-.271.128-.407l4.106 2.396c-.048.144-.088.28-.128.416" fill="#9967B2"/><path d="M65.459 35.22l-4.098-2.38.136-.4 4.105 2.396c-.047.136-.088.264-.135.392" fill="#976AB4"/><path d="M65.594 34.828l-4.106-2.396.144-.376 4.106 2.397-.144.383" fill="#946DB6"/><path d="M65.738 34.445l-4.106-2.397a5.24 5.24 0 01.152-.375l4.106 2.396c-.056.128-.104.256-.152.376z" fill="#916FB8"/><path d="M65.89 34.07l-4.106-2.397a5.06 5.06 0 01.152-.368l4.106 2.397c-.056.12-.104.24-.152.36" fill="#8E72BA"/><path d="M66.042 33.742l-4.106-2.397.16-.36 4.106 2.397c-.056.12-.112.24-.16.36z" fill="#8B74BB"/><path d="M66.201 33.35l-4.105-2.396.167-.36 4.106 2.397-.168.36z" fill="#8877BD"/><path d="M66.37 32.99l-4.107-2.396.176-.351 4.106 2.396c-.064.12-.12.232-.176.352z" fill="#857ABF"/><path d="M66.545 32.64l-4.106-2.397.184-.351 4.098 2.396-.176.351z" fill="#837CC1"/><path d="M66.72 32.288l-4.097-2.396.184-.344 4.105 2.397-.191.343z" fill="#807FC2"/><path d="M66.952 31.944l-4.106-2.396.2-.351 4.106 2.396-.2.351z" fill="#7D81C4"/><path d="M67.112 31.593l-4.106-2.396.208-.344 4.106 2.396-.208.352" fill="#7A84C6"/><path d="M67.32 31.241l-4.106-2.396c.072-.12.144-.24.223-.351l4.106 2.396-.223.351z" fill="#7786C8"/><path d="M67.543 30.89l-4.106-2.396c.072-.12.152-.24.232-.36l4.082 2.412c-.08.12-.16.232-.232.352" fill="#7489CA"/><path d="M67.751 30.547L63.67 28.15l.248-.36 4.106 2.397-.272.36z" fill="#718CCB"/><path d="M68.023 30.18l-4.106-2.397.255-.368 4.106 2.397c-.088.12-.175.24-.255.367z" fill="#6E8ECD"/><path d="M68.278 29.811l-4.105-2.396.295-.383 4.106 2.396-.296.383z" fill="#6C91CF"/><path d="M68.55 29.428l-4.106-2.396.312-.392 4.106 2.397-.312.391z" fill="#6993D1"/><path d="M68.885 29.037L64.78 26.64a8 8 0 01.351-.407l4.106 2.396c-.12.136-.24.272-.352.416" fill="#6696D2"/><path d="M69.237 28.621l-4.106-2.396.407-.471 4.106 2.396c-.136.152-.28.304-.407.455" fill="#6399D4"/><path d="M69.644 28.15l-4.106-2.396.504-.512 4.106 2.397c-.176.16-.336.335-.504.511z" fill="#609BD6"/><path d="M70.147 27.655l-4.105-2.397c.223-.223.447-.431.679-.639l4.105 2.397c-.231.2-.455.415-.678.639z" fill="#5D9ED8"/><path d="M70.826 27.016l-4.105-2.397c.215-.183.43-.367.655-.535l4.105 2.396c-.223.168-.439.344-.654.536z" fill="#5AA0DA"/><path d="M71.482 26.48l-4.106-2.396v-2.229l4.106 2.397c0 .415-.04.799-.04 1.246 0 .447 0 .663.04.982z" fill="#AE55A6"/><path d="M71.482 24.252l-4.106-2.397c0-.391.064-.799.12-1.174l4.106 2.396c-.056.4-.096.8-.12 1.183" fill="#AB58A8"/><path d="M71.601 23.07l-4.105-2.397c.04-.303.087-.607.135-.91l4.106 2.396c-.056.312-.096.615-.136.91z" fill="#A85BAA"/><path d="M71.745 22.159l-4.106-2.396a20.2 20.2 0 01.16-.8l4.106 2.397c-.056.272-.112.543-.16.799z" fill="#A55DAB"/><path d="M71.897 21.352l-4.106-2.396c.048-.256.112-.503.176-.76l4.098 2.397c-.056.248-.12.503-.168.751" fill="#A260AD"/><path d="M72.065 20.601l-4.098-2.396c.048-.224.112-.44.168-.663l4.105 2.396c-.055.224-.12.448-.175.671" fill="#9F62AF"/><path d="M72.24 19.93l-4.106-2.396.192-.655 4.106 2.396-.192.655z" fill="#9C65B1"/><path d="M72.432 19.275l-4.106-2.396c.064-.208.128-.408.2-.607l4.106 2.396c-.072.208-.136.408-.2.607z" fill="#9967B2"/><path d="M72.632 18.668l-4.106-2.396c.064-.2.136-.408.208-.607l4.106 2.396c-.072.2-.144.4-.208.6" fill="#976AB4"/><path d="M72.84 18.07l-4.106-2.397c.064-.184.135-.376.207-.568l4.106 2.397c-.072.192-.144.375-.207.567z" fill="#946DB6"/><path d="M73.047 17.502l-4.106-2.396c.072-.184.152-.376.224-.567l4.106 2.396c-.072.192-.152.375-.224.567z" fill="#916FB8"/><path d="M73.27 16.967l-4.105-2.397.231-.543 4.106 2.397c-.08.175-.151.359-.231.543z" fill="#8E72BA"/><path d="M73.502 16.392l-4.105-2.397.24-.543 4.105 2.396-.24.544z" fill="#8B74BB"/><path d="M73.742 15.848l-4.106-2.396c.088-.176.168-.351.256-.535l4.106 2.396c-.088.176-.168.352-.256.535z" fill="#8877BD"/><path d="M73.998 15.313l-4.106-2.396c.08-.176.168-.352.256-.527l4.106 2.396a15.9 15.9 0 00-.256.527z" fill="#857ABF"/><path d="M74.254 14.786l-4.106-2.396.28-.528 4.105 2.397-.28.527z" fill="#837CC1"/><path d="M74.533 14.259l-4.106-2.397c.088-.175.184-.343.28-.519l4.106 2.396a16.59 16.59 0 00-.28.528" fill="#807FC2"/><path d="M74.813 13.771l-4.106-2.396c.096-.176.2-.351.303-.52l4.098 2.397-.295.52z" fill="#7D81C4"/><path d="M75.108 13.212l-4.098-2.396c.096-.184.208-.36.312-.527l4.106 2.396c-.112.176-.216.352-.32.527z" fill="#7A84C6"/><path d="M75.427 12.685l-4.105-2.396c.103-.176.215-.352.327-.528l4.09 2.413c-.112.176-.224.343-.327.519" fill="#7786C8"/><path d="M75.74 12.174l-4.107-2.397.352-.535 4.106 2.397c-.12.183-.24.36-.352.543" fill="#7489CA"/><path d="M76.107 11.623l-4.106-2.397c.12-.184.24-.36.368-.535l4.105 2.396-.367.528" fill="#718CCB"/><path d="M76.474 11.095L72.368 8.7c.128-.192.264-.375.4-.56l4.105 2.397a16.43 16.43 0 00-.399.567" fill="#6E8ECD"/><path d="M76.874 10.528l-4.106-2.396.423-.56 4.106 2.397-.423.551" fill="#6C91CF"/><path d="M77.337 9.977L73.23 7.581l.48-.607 4.105 2.396-.48.607z" fill="#6993D1"/><path d="M77.776 9.37L73.67 6.974l.528-.615 4.105 2.396-.527.623" fill="#6696D2"/><path d="M78.303 8.747L74.198 6.35c.202-.23.402-.453.599-.671l4.106 2.396-.6.663" fill="#6399D4"/><path d="M78.934 8.084L74.83 5.688c.247-.264.503-.528.758-.8l4.106 2.397c-.263.256-.511.511-.759.799z" fill="#609BD6"/><path d="M79.662 7.301l-4.106-2.396a19.24 19.24 0 011.03-.959l4.106 2.397a35.32 35.32 0 00-1.03.958z" fill="#5D9ED8"/><path d="M80.692 6.343l-4.106-2.397a19.885 19.885 0 013.147-2.237l4.106 2.397a19.468 19.468 0 00-3.147 2.237z" fill="#5AA0DA"/><path d="M83.799 4.098C88.752 1.238 93.033 2.1 95.03 5.79a9.432 9.432 0 011.39-.99c3.427-1.973 6.207-.392 6.223 3.547 4.122-1.79 7.349.375 7.357 5.256 0 5.248-3.675 11.638-8.236 14.274L72.959 44.51c-4.57 2.636-8.276.51-8.291-4.73 0-4.688 2.931-10.28 6.813-13.3 0-.319-.04-.646-.04-.982-.024-7.868 5.512-17.454 12.358-21.4z" fill="url(#paint0_linear)"/><path d="M87.105 11.15c5.132-2.937 9.28-.571 9.3 5.263.018 5.834-4.13 12.985-9.24 15.902-5.11 2.918-9.3.576-9.3-5.268 0-5.843 4.13-12.985 9.24-15.898zm.05 18.902c4.019-2.319 7.276-7.912 7.262-12.498-.014-4.587-3.267-6.442-7.308-4.137-4.04 2.305-7.27 7.907-7.256 12.494.014 4.586 3.29 6.446 7.303 4.141z" fill="#fff"/><path d="M91.106 15.295a.703.703 0 01.704-.07c.387.223.387.928 0 1.605l-5.278 9.085a2.022 2.022 0 01-.7.738.711.711 0 01-.704.07l-2.655-1.503c-.388-.223-.392-.928 0-1.61.165-.3.404-.554.695-.737a.716.716 0 01.705-.07l1.936 1.109 4.578-7.884c.171-.302.419-.555.719-.733z" fill="#fff"/><path d="M23.483 84.045V42.022l23.483-13.595V70.45L23.483 84.044z" fill="#6399D4"/><path d="M25.955 80.337V70.45l18.54-11.123v9.888l-18.54 11.123z" fill="#431477"/><path d="M34.607 84.045l-8.652-4.944V70.45l11.157-6.69 16.034 9.161-18.54 11.124z" fill="#39185D"/><path d="M27.191 79.101v-6.857a1 1 0 01.476-.851l14.83-9.126a.5.5 0 01.761.426v6.52l-16.067 9.888z" fill="#F2994A"/><path d="M29.663 80.337V73.48a1 1 0 01.476-.851l14.83-9.126a.5.5 0 01.761.426v6.52l-16.067 9.888z" fill="#F2C94C"/><path d="M48.202 65.165v6.52l-15.24 9.379-.827.51v-6.858a1 1 0 01.476-.851l14.83-9.126a.5.5 0 01.761.426z" fill="#FFDB6C"/><path d="M34.607 84.045l-8.652-4.944v-1.236l8.652 4.944v1.236zm0-2.472l-8.652-4.944v-1.236l8.652 4.944v1.236z" fill="#49B0E4"/><path d="M34.607 85.281v-9.888l18.54-11.123v9.887l-18.54 11.124z" fill="#A65CAB"/><path d="M33.37 84.663l1.237.618v-9.888l-1.236-.618v9.888z" fill="#21D4FD"/><path d="M51.91 63.652L33.37 74.775l1.237.618 18.54-11.123-1.237-.618z" fill="#49B0E4"/><path d="M40.787 77.865v-2.472l6.18-3.707v2.471l-6.18 3.708z" fill="#21D3FC"/><path d="M25.955 66.742v-9.888l18.54-11.123v9.887l-18.54 11.124zm0-13.596v-9.888l18.54-11.123v9.888l-18.54 11.123z" fill="#A65CAB"/><path d="M32.135 59.326v-2.472l6.18-3.708v2.472l-6.18 3.708zm0-13.596v-2.47l6.18-3.708v2.471l-6.18 3.708z" fill="#21D3FC"/><path d="M23.483 84.045V42.022L0 28.428V70.45l23.483 13.595z" fill="url(#paint1_linear)"/><path d="M0 28.427l23.483 13.596 23.483-13.596-23.483-13.595L0 28.427z" fill="#21D3FC"/><defs><linearGradient id="paint0_linear" x1="64.638" y1="36.335" x2="110.072" y2="9.543" gradientUnits="userSpaceOnUse"><stop stop-color="#21D4FD"/><stop offset="1" stop-color="#49B0E4"/></linearGradient><linearGradient id="paint1_linear" x1="23.498" y1="72.076" x2="-6.527" y2="64.944" gradientUnits="userSpaceOnUse"><stop stop-color="#21D4FD"/><stop offset="1" stop-color="#49B0E4"/></linearGradient></defs></svg>