<svg width="132" height="78" viewBox="0 0 132 78" fill="none" xmlns="http://www.w3.org/2000/svg"><path opacity=".5" d="M98 5.5l-19 11-21-12-19 11-19 11 21 12-38 22" stroke="url(#paint0_linear)" stroke-width="8" stroke-linejoin="round"/><path d="M96 7V2l4-2v5l-4 2z" fill="#1FC4EA"/><path d="M100 5V0l4 2v5l-4-2z" fill="#23D3FC"/><path d="M104 7l-4 2-4-2 4-2 4 2z" fill="#1BBEE4"/><path d="M50.296 22.707l8.458-4.919a3 3 0 013.035.3l-8.398 4.907a3 3 0 00-3.035-.288" fill="#AB58A8"/><path d="M100.074 74.477l8.398-4.92a5.19 5.19 0 010 .636l-8.398 4.92a5.62 5.62 0 000-.636z" fill="#946DB6"/><path d="M100.026 75.089l8.398-4.92c-.043.329-.123.65-.24.96l-8.458 4.907c.127-.302.208-.621.24-.947" fill="#9967B2"/><path d="M99.786 76.06l8.458-4.907a2.856 2.856 0 01-.408.672l-8.398 4.907a2.4 2.4 0 00.408-.672" fill="#9F62AF"/><path d="M99.39 76.732l8.398-4.907a2.045 2.045 0 01-.552.468l-8.398 4.92c.21-.127.397-.29.552-.48z" fill="#A55DAB"/><path d="M100.122 54.92l8.458-4.918-.06 19.556-8.446 4.919.048-19.556z" fill="#857ABF"/><path d="M53.331 22.995l8.458-4.907 42.544 24.559-8.458 4.92L53.33 22.994z" fill="#A35FAD"/><path d="M95.875 47.566l8.398-4.919a5.9 5.9 0 01.72.492l-8.398 4.907a5.769 5.769 0 00-.72-.48z" fill="#AB58A8"/><path d="M96.594 48.046l8.399-4.907c.326.25.631.527.912.828l-8.399 4.919a8.587 8.587 0 00-.924-.84" fill="#A55DAB"/><path d="M97.518 48.886l8.399-4.92c.282.294.542.606.779.937l-8.458 4.907c-.24-.321-.496-.63-.768-.924" fill="#9F62AF"/><path d="M98.286 49.81l8.458-4.907c.281.378.53.78.744 1.2l-8.398 4.906c-.22-.416-.469-.817-.744-1.2" fill="#9967B2"/><path d="M99.03 50.997l8.398-4.907a8.461 8.461 0 011.092 3.912l-8.398 4.919a8.33 8.33 0 00-1.092-3.924z" fill="#946DB6"/><path d="M95.875 47.566a9.358 9.358 0 014.247 7.355v19.556c0 2.7-1.92 3.79-4.271 2.4L53.247 52.292A9.334 9.334 0 0149 44.987l.06-19.557c0-2.699 1.92-3.79 4.271-2.399l42.544 24.535z" fill="#2EC9F5"/><mask id="a" maskUnits="userSpaceOnUse" x="49" y="22" width="52" height="56"><path d="M95.875 47.566a9.358 9.358 0 014.247 7.355v19.556c0 2.7-1.92 3.79-4.271 2.4L53.247 52.292A9.334 9.334 0 0149 44.987l.06-19.557c0-2.699 1.92-3.79 4.271-2.399l42.544 24.535z" fill="#2EC9F5"/></mask><g mask="url(#a)" stroke="#A35FAD" stroke-width="2" stroke-linejoin="round"><path d="M73 49V33l28 16v16L73 49zM45 33V17l28 16v16L45 33z"/><path d="M59 58V41l28 16v17L59 58z"/></g><path opacity=".5" d="M123 29.5L103 41" stroke="url(#paint1_linear)" stroke-width="8" stroke-linejoin="round"/><path d="M119.174 32.26l-.331-4.99 3.859-2.26.331 4.989-3.859 2.26z" fill="#1FC4EA"/><path d="M123.033 29.999l-.331-4.99 4.124 1.732.331 4.989-4.124-1.731z" fill="#23D3FC"/><path d="M127.157 31.73l-3.859 2.26-4.124-1.73 3.859-2.261 4.124 1.73z" fill="#1BBEE4"/><path opacity=".5" d="M126 8.5L94 27" stroke="url(#paint2_linear)" stroke-width="8" stroke-linejoin="round"/><path d="M124 10V5l4-2v5l-4 2z" fill="#1FC4EA"/><path d="M128 8V3l4 2v5l-4-2z" fill="#23D3FC"/><path d="M132 10l-4 2-4-2 4-2 4 2z" fill="#1BBEE4"/><defs><linearGradient id="paint0_linear" x1="58.5" y1="-.5" x2="42.09" y2="76.154" gradientUnits="userSpaceOnUse"><stop stop-color="#21D3FC"/><stop offset="1" stop-color="#71E4FF" stop-opacity="0"/></linearGradient><linearGradient id="paint1_linear" x1="123" y1="30" x2="117.913" y2="45.156" gradientUnits="userSpaceOnUse"><stop stop-color="#21D3FC"/><stop offset="1" stop-color="#71E4FF" stop-opacity="0"/></linearGradient><linearGradient id="paint2_linear" x1="126" y1="9.304" x2="112.172" y2="39.643" gradientUnits="userSpaceOnUse"><stop stop-color="#21D3FC"/><stop offset="1" stop-color="#71E4FF" stop-opacity="0"/></linearGradient></defs></svg>