<?xml version="1.0" encoding="UTF-8" standalone="no"?> <svg xmlns="http://www.w3.org/2000/svg" xmlns:xlink="http://www.w3.org/1999/xlink" class="icon" viewBox="0 0 1024 1024" version="1.1" width="200" height="200"><defs><style type="text/css"></style></defs><path d="M676.297143 0H145.609143C130.834286 0 118.857143 11.977143 118.857143 35.218286V1005.714286c0 6.308571 11.977143 18.285714 26.752 18.285714h732.781714c14.774857 0 26.752-11.977143 26.752-18.285714V237.312c0-12.726857-1.700571-16.822857-4.699428-19.84L687.670857 4.699429A16.164571 16.164571 0 0 0 676.297143 0z" fill="#E9E9E0"></path><path d="M685.714286 2.761143V219.428571h216.667428z" fill="#D9D7CA"></path><path d="M878.390857 1024H145.609143A26.752 26.752 0 0 1 118.857143 997.248V713.142857h786.285714v284.105143c0 14.774857-11.977143 26.752-26.752 26.752z" fill="#71C285"></path><path d="M373.997714 969.142857h-30.500571V784.896h30.500571V969.142857zM524.251429 918.637714c0 6.656-1.371429 13.129143-4.132572 19.382857s-6.619429 11.757714-11.629714 16.493715-11.172571 8.539429-18.505143 11.373714a68.955429 68.955429 0 0 1-24.996571 4.242286c-4.004571 0-8.118857-0.219429-12.379429-0.621715s-8.557714-1.133714-12.873143-2.121142c-4.333714-1.005714-8.466286-2.377143-12.379428-4.132572s-7.296-3.876571-10.130286-6.381714l5.248-21.504c2.322286 1.334857 5.284571 2.633143 8.868571 3.876571s7.277714 2.413714 11.117715 3.492572c3.821714 1.097143 7.661714 1.956571 11.501714 2.633143 3.821714 0.658286 7.405714 1.005714 10.752 1.005714 10.166857 0 17.956571-2.377143 23.369143-7.131429s8.118857-11.794286 8.118857-21.12c0-5.668571-1.92-10.496-5.741714-14.500571-3.84-4.004571-8.630857-7.625143-14.372572-10.88s-11.958857-6.491429-18.633143-9.746286a112.877714 112.877714 0 0 1-18.742857-11.501714 59.684571 59.684571 0 0 1-14.500571-15.616c-3.84-5.997714-5.741714-13.494857-5.741715-22.491429 0-8.155429 1.499429-15.414857 4.498286-21.741714s7.04-11.721143 12.123429-16.128 11.008-7.789714 17.755428-10.130286 13.878857-3.492571 21.376-3.492571c7.661714 0 15.414857 0.713143 23.241143 2.121143 7.826286 1.408 14.153143 3.712 18.998857 6.875428a243.382857 243.382857 0 0 1-3.492571 7.131429l-3.748572 7.241143c-1.170286 2.249143-2.176 4.132571-2.998857 5.632a23.094857 23.094857 0 0 1-1.499428 2.505143c-1.005714-0.493714-2.121143-1.152-3.382857-1.993143s-3.053714-1.664-5.376-2.505143a38.528 38.528 0 0 0-9.252572-1.755429 87.424 87.424 0 0 0-14.756571 0.256c-3.346286 0.347429-6.491429 1.28-9.508572 2.870857s-5.686857 3.529143-8.009143 5.869715a26.441143 26.441143 0 0 0-5.504 7.881143 20.114286 20.114286 0 0 0-1.993142 8.374857c0 6.656 1.901714 12.032 5.741714 16.128 3.821714 4.096 8.576 7.661714 14.244571 10.752 5.668571 3.090286 11.812571 6.089143 18.505143 8.996571 6.656 2.907429 12.873143 6.473143 18.633143 10.624s10.532571 9.380571 14.372571 15.616c3.876571 6.253714 5.814857 14.281143 5.814858 24.118857zM705.243429 876.141714c0 15.506286-1.956571 29.165714-5.869715 40.996572s-9.344 21.668571-16.256 29.494857-14.994286 13.750857-24.246857 17.755428-19.382857 5.997714-30.372571 5.997715-21.12-1.993143-30.372572-5.997715-17.334857-9.910857-24.246857-17.755428-12.342857-17.664-16.256-29.494857-5.869714-25.508571-5.869714-40.996572 1.956571-29.129143 5.869714-40.868571 9.344-21.540571 16.256-29.366857 14.994286-13.787429 24.246857-17.883429 19.382857-6.125714 30.372572-6.125714 21.12 2.029714 30.372571 6.125714 17.334857 10.038857 24.246857 17.883429 12.342857 17.627429 16.256 29.366857 5.869714 25.362286 5.869715 40.868571z m-77.494858 69.76c6.162286 0 12.032-1.206857 17.627429-3.620571s10.587429-6.381714 14.994286-11.867429 7.881143-12.708571 10.368-21.632 3.821714-19.785143 4.004571-32.621714c-0.182857-12.507429-1.462857-23.131429-3.876571-31.872s-5.741714-15.963429-10.002286-21.632-9.088-9.746286-14.500571-12.251429-11.117714-3.748571-17.133715-3.748571c-6.180571 0-12.032 1.152-17.627428 3.492571s-10.587429 6.290286-14.994286 11.867429-7.881143 12.781714-10.368 21.632-3.84 19.657143-4.004571 32.493714c0.164571 12.507429 1.462857 23.168 3.876571 32s5.741714 16.036571 10.002286 21.632 9.088 9.654857 14.500571 12.251429 11.136 3.876571 17.133714 3.876571z" fill="#FFFFFF"></path><path d="M502.857143 384m-219.428572 0a219.428571 219.428571 0 1 0 438.857143 0 219.428571 219.428571 0 1 0-438.857143 0Z" fill="#C8BDB8"></path><path d="M502.857143 384m-54.857143 0a54.857143 54.857143 0 1 0 109.714286 0 54.857143 54.857143 0 1 0-109.714286 0Z" fill="#E9E9E0"></path><path d="M464.073143 345.216c2.413714-2.413714 5.046857-4.48 7.771428-6.345143l-43.172571-161.152a218.057143 218.057143 0 0 0-80.950857 51.126857 217.819429 217.819429 0 0 0-51.126857 80.950857l161.152 43.172572a53.577143 53.577143 0 0 1 6.326857-7.753143zM549.869714 429.458286l41.563429 155.117714a218.020571 218.020571 0 0 0 66.578286-45.421714 218.276571 218.276571 0 0 0 50.157714-78.171429l-149.723429-40.118857a7.003429 7.003429 0 0 0-8.576 8.594286z" fill="#D3CCC9"></path></svg> 