<?xml version="1.0" encoding="UTF-8" standalone="no"?> <svg xmlns="http://www.w3.org/2000/svg" xmlns:xlink="http://www.w3.org/1999/xlink" class="icon" viewBox="0 0 1024 1024" version="1.1" width="200" height="200"><defs><style type="text/css"></style></defs><path d="M887.4 838.7c-57.9 0-90.5-34.1-131.7-77.3-14.8-15.5-30.1-31.5-48-47.5-48.9-43.7-97.8-49.7-143.4-49.7-7.5 0-14.8 0.2-22.9 0.4-6.6 0.2-13.4 0.3-19.9 0.3h-20.9c-6.5 0-13.3-0.2-19.9-0.3-48.1-1.2-108.1-2.6-166.2 49.3-18 16-33.2 32-48 47.5-41.2 43.2-73.8 77.4-131.7 77.4-21.2 0-38.8-7.7-52.5-23-20-22.4-31.8-60.3-36-116.1-0.8-11 7.4-20.6 18.4-21.4 11-0.8 20.6 7.4 21.4 18.4 4.3 57.3 16.5 81.9 25.9 92.4 6.1 6.8 12.9 9.7 22.7 9.7 40.8 0 65.4-25.8 102.7-64.9 15.3-16.1 31.2-32.7 50.3-49.8 30.8-27.5 64.7-45 103.5-53.5 33.7-7.4 65.1-6.6 90.3-6 6.7 0.2 12.9 0.3 18.9 0.3h20.9c6 0 12.3-0.2 18.9-0.3 8.3-0.2 15.9-0.4 23.8-0.4 21.6 0 50.4 1.1 81.3 10.1 32.8 9.5 61.8 25.7 88.7 49.8 19.2 17.1 35 33.7 50.3 49.7 38.7 40.5 62 65 102.8 65 9.8 0 16.6-2.9 22.7-9.7 16.5-18.4 40.9-79.7 18.4-282.7-10.6-96.2-36.5-172.9-74.7-221.9-29.8-38.1-67.2-59.1-105.4-59.1-19.8 0-34 8.5-55.6 21.5-35.7 21.4-84.4 50.7-181.7 50.7-97.2 0-146-29.3-181.6-50.6-21.6-12.9-35.8-21.5-55.6-21.5-38.2 0-75.6 21-105.4 59.1-38.3 48.9-64.1 125.7-74.7 221.9-1.4 12.6-2.6 24.9-3.7 36.7-1 11-10.7 19.1-21.7 18.1S49 550.6 50 539.6c1.1-12.1 2.4-24.7 3.8-37.5C65.4 397 93.3 315.6 136.8 260c37.5-48 86.1-74.5 136.9-74.5 30.9 0 52.9 13.2 76.2 27.2 35.1 21.1 74.9 44.9 161.1 44.9 86.2 0 125.9-23.9 161.1-44.9 23.3-14 45.3-27.2 76.2-27.2 50.7 0 99.3 26.4 136.9 74.5 43.4 55.6 71.4 137 83 242.1 9 81.2 11.5 148.3 7.5 199.2-4.3 54.9-16 92.4-35.9 114.6-13.6 15-31.2 22.8-52.4 22.8z"></path><path d="M743.2 399c0 20.9-16.9 37.8-37.8 37.8s-37.9-16.9-37.9-37.8 16.9-37.9 37.9-37.9c20.8 0 37.8 16.9 37.8 37.9zM743.2 551.4c0 20.9-16.9 37.8-37.8 37.8s-37.8-16.9-37.8-37.8 16.9-37.8 37.8-37.8c20.8-0.1 37.8 16.8 37.8 37.8zM781.5 513c-20.9 0-37.9-16.9-37.9-37.8s16.9-37.8 37.9-37.8c20.9 0 37.9 16.9 37.9 37.8s-17 37.8-37.9 37.8zM629.1 513c-20.9 0-37.8-16.9-37.8-37.8s16.9-37.8 37.8-37.8 37.9 16.9 37.9 37.8-17 37.8-37.9 37.8zM315.9 584.3c-11 0-20-9-20-20v-187c0-11 9-20 20-20s20 9 20 20v187c0 11.1-8.9 20-20 20z"></path><path d="M411.6 490.8h-187c-11 0-20-9-20-20s9-20 20-20h187c11 0 20 9 20 20s-9 20-20 20z"></path></svg> 